<?xml version="1.0" encoding="utf-8"?><!-- Uploaded to: SVG Repo, www.svgrepo.com, Generator: SVG Repo Mixer Tools -->
<svg width="800px" height="800px" viewBox="0 0 16 16" xmlns="http://www.w3.org/2000/svg">
  <path fill-rule="evenodd" clip-rule="evenodd" d="M4 0a4 4 0 00-4 4v8a4 4 0 004 4h8a4 4 0 004-4V4a4 4 0 00-4-4H4zm0 4.75A.75.75 0 014.75 4h6.5a.75.75 0 010 1.5h-6.5A.75.75 0 014 4.75zm9.78 5.72a.75.75 0 010 1.06l-2.25 2.25a.75.75 0 01-1.06 0l-1.25-1.25a.75.75 0 111.06-1.06l.72.72 1.72-1.72a.75.75 0 011.06 0zM4 8a.75.75 0 01.75-.75h6.5a.75.75 0 010 1.5h-6.5A.75.75 0 014 8zm0 3.25a.75.75 0 01.75-.75h2.5a.75.75 0 010 1.5h-2.5a.75.75 0 01-.75-.75z" fill="#000000"/>
</svg>