<svg width="44" height="44" viewBox="0 0 44 44" fill="none" xmlns="http://www.w3.org/2000/svg">
<mask id="mask0_780_1409" style="mask-type:alpha" maskUnits="userSpaceOnUse" x="0" y="0" width="44" height="44">
<circle cx="22" cy="22" r="22" fill="white"/>
<circle cx="22" cy="22" r="21.5" stroke="black" stroke-opacity="0.1"/>
</mask>
<g mask="url(#mask0_780_1409)">
<circle cx="22" cy="22" r="22" fill="#CC0000"/>
<circle cx="22" cy="22" r="21.5" stroke="black" stroke-opacity="0.1"/>
<path fill-rule="evenodd" clip-rule="evenodd" d="M9.25602 22.0002C9.25602 20.1417 10.7628 18.6353 12.621 18.6353H15.1743V16.7289H12.6002C9.69356 16.7289 7.32861 19.0935 7.32861 22.0003C7.32861 24.9068 9.69356 27.2717 12.6002 27.2717L17.5566 27.2715C17.8338 27.2715 18.0566 26.9989 18.0566 26.7731V17.0094C18.0566 16.4712 18.3942 16.0174 18.8964 15.8805C19.3249 15.7638 19.9257 15.8822 20.3271 16.5647C20.3459 16.5962 21.5635 18.6951 23.4194 21.8941C24.8757 24.4058 26.3826 27.003 26.4098 27.0492C26.5656 27.3138 26.7794 27.439 26.9826 27.3838C27.1106 27.3491 27.2606 27.2252 27.2606 26.9905V17.0094C27.2607 16.4704 27.5971 16.0165 28.0974 15.8801C28.5231 15.7643 29.1209 15.8831 29.5223 16.5647C29.5401 16.5945 30.6166 18.4509 32.3879 21.5042C33.9543 24.2046 35.5739 26.9971 35.6045 27.049C35.7605 27.3138 35.9747 27.439 36.1775 27.3838C36.3055 27.3491 36.4555 27.2252 36.4555 26.9906V14.0598H34.5446V21.7585C34.5446 21.7585 31.3524 16.2589 31.2058 16.0099C29.1791 12.5676 25.3497 13.9903 25.3497 16.9536V21.7585C25.3497 21.7585 22.1575 16.2589 22.0109 16.0099C19.9842 12.5676 16.155 13.9903 16.1548 16.9536V24.8288C16.1558 25.1151 15.9403 25.3647 15.6269 25.3651H12.621C10.7628 25.3651 9.25602 23.8585 9.25602 22.0002Z" fill="white"/>
<path fill-rule="evenodd" clip-rule="evenodd" d="M37.2177 14.0598V26.9906C37.2177 27.5289 36.8801 27.9828 36.378 28.1197C36.2856 28.1448 36.1853 28.1591 36.0805 28.1591C35.6995 28.1591 35.2624 27.9708 34.947 27.4355C34.93 27.4068 33.6615 25.2197 31.7283 21.8867C30.3334 19.4825 28.8915 16.9967 28.8647 16.9512C28.709 16.6869 28.4974 16.5613 28.2975 16.6158C28.171 16.6504 28.0228 16.7743 28.0228 17.0096V26.9906C28.0228 27.529 27.6852 27.9828 27.1829 28.1197C26.7544 28.2362 26.1538 28.118 25.7521 27.4355C25.7359 27.4079 24.5564 25.375 22.7595 22.2766C21.2541 19.6821 19.6978 16.9989 19.6698 16.9512C19.5137 16.6863 19.2995 16.561 19.0968 16.6162C18.9687 16.6512 18.8192 16.775 18.8192 17.0094L18.8189 26.773C18.8189 27.4449 18.2289 28.0341 17.5563 28.0341H12.6C9.27279 28.0341 6.56602 25.3274 6.56602 22.0003C6.56602 18.673 9.27279 15.9661 12.6 15.9661H15.1741V14.0598H12.6021C8.21677 14.0598 4.66162 17.6148 4.66162 22.0003C4.66162 26.3854 8.21677 29.9403 12.6021 29.9403H17.6066C19.5088 29.9417 20.7322 28.8269 20.7301 26.7708V22.242C20.7301 22.242 23.9219 27.7413 24.0688 27.9903C26.0954 31.4326 29.925 30.01 29.925 27.0465V22.242C29.925 22.242 33.1172 27.7413 33.2635 27.9903C35.29 31.4326 39.1196 30.01 39.1199 27.0465V14.0598H37.2177Z" fill="white"/>
</g>
</svg>
