<?xml version="1.0" encoding="iso-8859-1"?>
<!-- Uploaded to: SVG Repo, www.svgrepo.com, Generator: SVG Repo Mixer Tools -->
<svg fill="#000000" height="800px" width="800px" version="1.1" id="Capa_1" xmlns="http://www.w3.org/2000/svg" xmlns:xlink="http://www.w3.org/1999/xlink" 
	 viewBox="0 0 57 57" xml:space="preserve">
<g>
	<path d="M56,19v-7H44v7h-1v6.206C43,26.195,43.805,27,44.794,27H47v1c0,1.302,0.839,2.402,2,2.816v2.833
		c0,6.891-3.57,13.825-11.301,17.214C40.945,47.932,43,43.707,43,39c0-8.822-7.178-16-16-16s-16,7.178-16,16
		c0,3.254,0.982,6.281,2.658,8.81C10.177,44.451,8,39.749,8,34.541V19.816c1.161-0.414,2-1.514,2-2.816h2.206
		C13.195,17,14,16.195,14,15.206V9h-1V2H1v7H0v6.206C0,16.195,0.805,17,1.794,17H4c0,1.302,0.839,2.402,2,2.816v15.698h0.023
		C6.533,46.345,15.504,55,26.459,55c0.132,0,0.261-0.006,0.393-0.008C26.902,54.993,26.95,55,27,55c0.11,0,0.216-0.014,0.326-0.017
		C41.309,54.638,51,45.966,51,33.648v-2.833c1.161-0.414,2-1.514,2-2.816v-1h2.206C56.195,27,57,26.195,57,25.206V19H56z M8,4h2v2H8
		V4z M4,4h2v2H4V4z M4,9V7h6v2H4z M13,39c0-7.72,6.28-14,14-14s14,6.28,14,14c0,2.137-0.496,4.156-1.356,5.97
		C39.869,44.015,40,43.023,40,42c0-7.168-5.832-13-13-13s-13,5.832-13,13c0,1.023,0.131,2.015,0.356,2.97
		C13.496,43.156,13,41.137,13,39z M27.343,52.983c-0.164,0.004-0.328,0.008-0.494,0.01C20.854,52.91,16,48.014,16,42
		c0-6.065,4.935-11,11-11s11,4.935,11,11C38,47.95,33.249,52.799,27.343,52.983z M47,14h2v2h-2V14z M53,19h-6v-2h6V19z M53,16h-2v-2
		h2V16z"/>
</g>
</svg>