<svg width="135" height="25" viewBox="0 0 135 25" fill="none" xmlns="http://www.w3.org/2000/svg">
<path d="M52.6377 9.05225H54.4749L55.5772 9.32783L56.7714 9.97084L57.4144 10.522L57.7819 10.9813V11.165L58.976 9.97084L60.2621 9.32783L61.4563 9.05225H63.2935L64.6714 9.41969L65.7737 10.0627L66.6004 10.8894L67.3353 12.3592L67.519 13.0941L67.6109 13.9208V22.5556L67.0597 22.6475H64.1202L64.0283 22.5556L63.9365 15.115L63.7528 14.1045L63.2935 13.1859L62.4667 12.6348L62.1911 12.5429H60.7214L59.8946 12.9104L59.3435 13.3697L58.8842 14.2883L58.7923 14.7476L58.7005 22.5556L57.5063 22.6475H55.2098L55.1179 22.5556L55.0261 14.8394L54.7505 13.7371L54.1993 13.0022L53.2807 12.5429L52.454 12.4511L51.5354 12.6348L50.8005 13.0941L50.2494 13.7371L49.9738 14.472L49.8819 15.2987V22.5556L49.0552 22.6475H46.2994L46.2075 22.5556V9.41969H49.6982L49.7901 10.7057L50.2494 10.1546L51.3517 9.41969L52.1784 9.14411L52.6377 9.05225Z" fill="#141414"/>
<path d="M69.6316 4.0918H73.2141L73.1223 10.6138L74.3164 9.69525L75.0513 9.32781L76.1536 9.05223H77.899L79.3687 9.41967L80.5629 10.0627L81.5734 10.8894L82.4001 11.9917L82.9513 13.0941L83.4106 14.8394V17.044L83.0431 18.6057L82.3083 20.0754L81.6652 20.9022L80.8385 21.7289L79.7362 22.3719L78.7257 22.7394L77.8071 22.9231H76.2455L75.0513 22.6475L74.0409 22.0963L73.2141 21.3615L73.1223 22.5556L72.9385 22.6475H69.8153L69.6316 22.5556V4.0918ZM76.0618 12.3592L75.0513 12.6348L74.2246 13.1859L73.6734 13.8289L73.306 14.5638L73.1223 15.2068V16.7685L73.4897 17.8708L74.1327 18.6975L74.8676 19.2487L75.6943 19.5243L76.6129 19.6161L77.5315 19.4324L78.4501 18.9731L79.185 18.2382L79.5525 17.5033L79.828 16.401V15.5743L79.5525 14.472L79.0932 13.6452L78.7257 13.1859L77.8071 12.6348L77.3478 12.451L76.7967 12.3592H76.0618Z" fill="#141414"/>
<path d="M17.0879 4H20.6704L20.7623 10.5221L21.0379 10.4302V10.2465L22.232 9.41973L23.0588 9.14415L23.6099 9.05229H25.3553L26.4576 9.32787L27.3762 9.78717L28.2948 10.5221L28.9378 11.4407L29.3053 12.1755L29.5808 13.3697V22.5557L27.5599 22.6476H26.0902L25.9983 22.5557L25.9064 14.6557L25.6309 13.7371L25.2634 13.186L24.7123 12.7267L24.1611 12.543H22.7832L21.8646 12.9104L21.1297 13.7371L20.8541 14.472L20.7623 15.0232L20.6704 22.5557L18.3739 22.6476H17.1798L17.0879 22.5557V4Z" fill="#141414"/>
<path d="M121.257 4.0918H124.84L124.931 14.0127L125.391 13.6452L126.034 12.9103L127.412 11.4406L128.881 9.87897L129.341 9.41967L133.658 9.32781L133.474 9.69525L132.556 10.6138L131.913 11.3487L130.351 12.9103L129.708 13.6452L129.065 14.1964L129.157 14.5638L131.821 18.6057L134.301 22.2801L134.393 22.5556L133.934 22.6475H130.167L129.8 22.2801L128.238 19.708L127.044 17.7789L126.493 16.8603L126.126 16.9522L125.023 18.1464L124.931 18.2382L124.84 22.5556L123.921 22.6475H121.349L121.257 22.5556V4.0918Z" fill="#141414"/>
<path d="M99.1188 9.05225H101.691L102.977 9.32783L104.447 10.0627L105.365 10.8894L105.916 11.808L106.284 12.6348L106.468 13.4615V22.5556H103.069L102.977 22.4638V21.637L103.069 21.2696L102.334 21.9126L101.507 22.4638L100.405 22.8312L99.9455 22.9231H98.2002L97.0978 22.6475L95.9037 22.0045L95.0769 21.1777L94.5258 20.0754L94.342 19.4324V18.0545L94.7095 16.8603L95.2606 16.1255L95.7199 15.6662L96.5467 15.115L97.3734 14.7476L98.8432 14.472L102.518 14.0127L102.701 13.829L102.426 13.0022L101.875 12.5429L101.14 12.2673L100.772 12.1755H99.2106L97.7409 12.5429L96.2711 13.2778L95.1688 11.2569L94.9851 10.9813L95.0769 10.6139L96.363 9.87898L97.4653 9.41969L99.1188 9.05225ZM102.334 16.401L99.3943 16.8603L98.7513 17.1359L98.2002 17.5952L97.9246 18.5138L98.1083 19.2487L98.5676 19.7999L99.1188 20.0754H100.589L101.507 19.708L102.15 19.2487L102.701 18.3301L102.885 17.5034V16.401H102.334Z" fill="#141414"/>
<path d="M31.5098 9.41992H35.0923L35.1842 9.51178V16.7687L35.3679 17.9629L35.919 18.8815L36.4702 19.2489L37.0214 19.4326H38.3074L39.226 19.0652L39.6853 18.6978L40.0527 18.1466L40.3283 17.0443L40.4202 9.41992H44.0027V22.5559L42.9004 22.6477H40.512L40.4202 22.5559L40.3283 21.4536L39.5016 22.1884L38.583 22.6477L37.5725 22.9233H35.8272L34.633 22.6477L33.6225 22.0966L32.7039 21.2698L32.0609 20.3512L31.6935 19.3408L31.5098 18.514V9.41992Z" fill="#141414"/>
<path d="M113.816 9.05225H115.745L117.032 9.32783L118.134 9.78713L119.052 10.4301L119.879 11.165L120.063 11.6243L118.685 12.8185L117.675 13.6452H117.399L116.48 12.9104L115.562 12.5429L115.102 12.4511H114.368L113.357 12.7266L112.53 13.2778L111.979 14.0127L111.612 14.9313L111.52 15.3906V16.5848L111.887 17.7789L112.439 18.6057L113.173 19.1568L114 19.4324L114.827 19.5243L115.837 19.3406L117.032 18.6975L117.583 18.2382L118.593 19.065L119.971 20.2592L120.063 20.5347L119.42 21.2696L118.409 22.0045L117.491 22.4638L116.205 22.8312L115.745 22.9231H113.816L112.439 22.6475L110.969 22.0045L109.866 21.1777L109.04 20.2592L108.305 18.9731L107.846 17.4115L107.754 16.7685V15.115L108.121 13.4615L108.856 11.9918L109.591 11.0732L110.509 10.2464L111.428 9.69527L112.714 9.23597L113.816 9.05225Z" fill="#141414"/>
<path d="M85.7989 5.46973H89.1059L89.3815 5.56159V9.4197H93.2396V12.5429H89.3815L89.4733 18.6057L89.7489 19.1568L90.2082 19.4324H91.2187L92.1373 19.1568H92.4128L93.5152 21.8208L93.4233 22.0964L92.321 22.5557L91.1268 22.8312L90.3919 22.9231H89.014L87.8198 22.5557L86.8094 21.8208L86.1664 20.9022L85.7989 19.7999L85.7071 12.6348L83.8699 12.5429V9.4197L85.7071 9.32784L85.7989 5.46973Z" fill="#141414"/>
<path d="M0.369385 4H15.9856V7.58254H0.369385V4Z" fill="#141414"/>
<path d="M9.27967 9.05225H10.1064V17.9627L9.92269 19.2487L9.46339 20.7185L8.36107 22.7394H7.99363L6.89131 20.7185L6.43201 19.3406L6.24829 18.2382V10.7057L7.07503 9.87899L7.80991 9.41969L9.27967 9.05225Z" fill="#141414"/>
</svg>
