<svg width="64" height="64" viewBox="0 0 64 64" fill="none" xmlns="http://www.w3.org/2000/svg">
<mask id="mask0_1045_1099" style="mask-type:alpha" maskUnits="userSpaceOnUse" x="2" y="2" width="60" height="60">
<mask id="mask1_1045_1099" style="mask-type:luminance" maskUnits="userSpaceOnUse" x="2" y="2" width="60" height="60">
<path d="M62 2H2V62H62V2Z" fill="white"/>
</mask>
<g mask="url(#mask1_1045_1099)">
<path fill-rule="evenodd" clip-rule="evenodd" d="M41.6408 51.3611C38.7296 56.2133 35.2091 58.4 32 58.4C28.7908 58.4 25.2703 56.2133 22.3591 51.3611C19.4908 46.5806 17.6 39.7439 17.6 32C17.6 24.256 19.4908 17.4195 22.3591 12.639C25.2703 7.78685 28.7908 5.6 32 5.6C35.2091 5.6 38.7296 7.78685 41.6408 12.639C44.5091 17.4195 46.4 24.256 46.4 32C46.4 39.7439 44.5091 46.5806 41.6408 51.3611ZM62 32C62 15.4315 48.5684 2 32 2C15.4315 2 2 15.4315 2 32C2 48.5684 15.4315 62 32 62C48.5684 62 62 48.5684 62 32ZM5.6 32C5.6 42.779 12.0598 52.049 21.3192 56.15C16.8795 50.6867 14 41.9039 14 32C14 22.0962 16.8795 13.3132 21.3192 7.84985C12.0598 11.951 5.6 21.2211 5.6 32ZM58.4 32C58.4 42.779 51.9401 52.049 42.6809 56.15C47.1206 50.6867 50 41.9039 50 32C50 22.0962 47.1206 13.3132 42.6809 7.84985C51.9401 11.951 58.4 21.2211 58.4 32ZM32 35.3C33.8225 35.3 35.3 33.8225 35.3 32C35.3 30.1775 33.8225 28.7 32 28.7C30.1775 28.7 28.7 30.1775 28.7 32C28.7 33.8225 30.1775 35.3 32 35.3Z" fill="#626262"/>
</g>
</mask>
<g mask="url(#mask0_1045_1099)">
<rect width="64" height="64" fill="url(#paint0_linear_1045_1099)"/>
</g>
<defs>
<linearGradient id="paint0_linear_1045_1099" x1="16" y1="58" x2="46.5" y2="4.5" gradientUnits="userSpaceOnUse">
<stop stop-color="#FF6036"/>
<stop offset="1" stop-color="#FEB8A4"/>
</linearGradient>
</defs>
</svg>
