<svg width="99" height="25" viewBox="0 0 99 25" fill="none" xmlns="http://www.w3.org/2000/svg">
<path d="M35.0184 12.3293H32V9.496H35.0184V4H38.3361V9.496H41.649V12.3293H38.3361V18.7638C38.3361 19.5847 38.6107 19.8229 39.3339 19.8229H42.1979V22.7356H38.2116C35.9913 22.7356 35.0184 21.7295 35.0184 19.8229V12.3293Z" fill="#141414"/>
<path d="M49.2405 9.23145C51.1115 9.23145 52.4086 10.1582 52.9823 11.3498V9.49618H56.225V22.7354H52.9822V20.8819C52.3585 22.0734 51.0615 23.0002 49.2405 23.0002C46.621 23.0002 43.8774 20.5641 43.8774 16.1157C43.8774 11.6673 46.3968 9.23145 49.2405 9.23145ZM50.1386 20.2199C51.7101 20.2199 52.9823 18.6578 52.9823 16.1157C52.9823 13.5737 51.7101 12.0117 50.1386 12.0117H49.9389C48.3676 12.0117 47.1203 13.7856 47.1203 16.0892C47.1203 18.4193 48.3676 20.2198 49.9389 20.2198L50.1386 20.2199Z" fill="#141414"/>
<path d="M61.3723 12.3293H58.354V9.496H61.3723V4H64.69V9.496H68.003V12.3293H64.69V18.7638C64.69 19.5847 64.9644 19.8229 65.6877 19.8229H68.5518V22.7356H64.5648C62.3449 22.7356 61.372 21.7295 61.372 19.8229L61.3723 12.3293Z" fill="#141414"/>
<path d="M75.5689 9.23145C77.4398 9.23145 78.7368 10.1582 79.3104 11.3498V9.49618H82.5534V22.7354H79.3104V20.8819C78.6869 22.0734 77.3896 23.0002 75.5689 23.0002C72.9494 23.0002 70.2056 20.5641 70.2056 16.1157C70.2056 11.6673 72.7252 9.23145 75.5689 9.23145ZM76.4667 20.2198C78.038 20.2198 79.3101 18.6577 79.3101 16.1156C79.3101 13.5736 78.0383 12.0117 76.4667 12.0117H76.2669C74.6954 12.0117 73.4482 13.7856 73.4482 16.0892C73.4482 18.4193 74.6953 20.2198 76.2669 20.2198H76.4667Z" fill="#141414"/>
<path d="M84.6765 9.49609H87.8694V12.0116C88.4431 10.2905 89.3912 9.49609 91.2119 9.49609H92.8537V12.647H91.0374C89.0668 12.647 87.9937 13.8385 87.9937 16.0891V22.7354H84.6765V9.49609Z" fill="#141414"/>
<path d="M98.4524 4H94.8853V7.68048H98.4524V4Z" fill="#141414"/>
<path d="M98.327 9.49609H95.0093V22.7354H98.327V9.49609Z" fill="#141414"/>
<path d="M16.922 17.3306H10.762V22.8079H16.922V17.3306Z" fill="#141414"/>
<path d="M17 11H6V16H17V11Z" fill="#141414"/>
<path d="M28 4H0V9H28V4Z" fill="#141414"/>
</svg>
