<svg width="122" height="25" viewBox="0 0 122 25" fill="none" xmlns="http://www.w3.org/2000/svg">
<path d="M113.649 13.7718C114.427 13.5921 115.241 13.6472 115.988 13.9301C116.736 14.213 117.384 14.7111 117.852 15.3626L110.576 17.0205C110.827 15.4691 112.002 14.1467 113.649 13.7718ZM117.893 19.8727C117.318 20.7117 116.449 21.3007 115.461 21.522C113.804 21.9 112.15 21.208 111.239 19.9053L118.538 18.2419L119.726 17.971L122 17.4533C121.986 16.9613 121.923 16.472 121.811 15.993C120.885 12.0369 116.887 9.57067 112.88 10.4837C108.873 11.3973 106.374 15.3447 107.3 19.3002C108.224 23.2562 112.223 25.7231 116.23 24.8101C118.591 24.2714 120.427 22.68 121.349 20.6539L117.893 19.8727ZM100.718 24.61V14.1221H98.4702V10.5489H100.718V5.63061H104.534V10.5489H107.4V14.1221H104.534V24.61H100.718ZM93.4272 24.61H97.1127V10.5489H93.4272V24.61ZM92.948 5.61583C92.948 4.31438 93.9669 3.33798 95.2852 3.33798C96.6036 3.33798 97.5925 4.31438 97.5925 5.61583C97.5925 6.9179 96.6036 7.92323 95.2852 7.92323C93.9669 7.92323 92.948 6.9179 92.948 5.61583ZM92.1443 10.5883C90.26 10.6868 89.1488 10.978 88.0187 11.803V10.5489H84.335V24.61H88.0181V17.7149C88.0181 15.5454 88.5437 14.3111 92.1443 14.1898V10.5883ZM71.6075 17.8005C71.6991 19.8524 73.4722 21.5731 75.6426 21.5731C77.8441 21.5731 79.6477 19.7619 79.6477 17.6195C79.6477 15.5066 77.8441 13.696 75.6426 13.696C73.4728 13.696 71.6991 15.4463 71.6075 17.4686V17.8005ZM68.0136 24.61V3.83973L71.6991 3V11.5955C72.8378 10.6782 74.1867 10.2934 75.6548 10.2934C79.8501 10.2934 83.2061 13.5477 83.2061 17.6306C83.2061 21.6833 79.8507 24.9966 75.6548 24.9966C74.1867 24.9966 72.8378 24.6125 71.6991 23.6952V24.6106L68.0136 24.61ZM60.1689 24.61V14.05H57.9215V10.5489H60.1689V5.62691L63.9852 4.75702V10.5489H66.8517V14.05H63.9852V24.61H60.1689ZM53.4152 24.61V17.0974C53.4152 14.3757 51.9465 13.7841 50.4778 13.7841C49.0097 13.7841 47.5416 14.3461 47.5416 17.0383V24.61H43.8561V10.5489H47.5416V11.5949C48.3502 11.0033 49.3391 10.2928 51.2876 10.2928C54.4035 10.2928 57.1007 12.0978 57.1007 16.5058V24.61H53.4152ZM34.5225 13.7718C36.1691 13.3962 37.812 14.0765 38.7263 15.3626L31.4506 17.0205C31.7012 15.4691 32.8765 14.1467 34.5225 13.7718ZM38.7673 19.8727C38.1918 20.7117 37.323 21.3007 36.3347 21.522C35.5512 21.7027 34.7321 21.6457 33.9807 21.3579C33.2294 21.0702 32.5795 20.5647 32.1132 19.9053L39.4121 18.2419L40.6008 17.971L42.8739 17.4533C42.8601 16.9613 42.7966 16.472 42.6844 15.993C41.7591 12.0369 37.7606 9.57067 33.7536 10.4837C29.7466 11.3973 27.248 15.3447 28.1734 19.3002C29.0987 23.2562 33.0966 25.7231 37.1042 24.8101C39.4652 24.2714 41.3019 22.68 42.223 20.6539L38.7673 19.8727ZM19.4913 24.61L13.7675 10.5489H17.783L21.4093 20.0851L25.0648 10.5489H29.0804L23.3572 24.61H19.4913ZM6.54131 13.7681C7.31977 13.5884 8.13351 13.6434 8.88113 13.9263C9.62876 14.2092 10.2772 14.7074 10.7457 15.3589L3.46944 17.0174C3.72003 15.466 4.89536 14.1436 6.54131 13.7681ZM10.7861 19.869C10.2107 20.7082 9.34187 21.2975 8.35351 21.5189C6.69717 21.8963 5.04327 21.2049 4.13197 19.9022L11.4309 18.2388L12.6197 17.9679L14.8927 17.4496C14.8789 16.9578 14.8154 16.4687 14.7032 15.9899C13.7779 12.0338 9.78004 9.56697 5.77242 10.48C1.76542 11.3936 -0.731929 15.3416 0.1922 19.2977C1.11755 23.2538 5.116 25.72 9.123 24.807C11.4841 24.2689 13.3207 22.6769 14.2424 20.6515L10.7861 19.869Z" fill="#141414"/>
</svg>
