<svg width="64" height="64" viewBox="0 0 64 64" fill="none" xmlns="http://www.w3.org/2000/svg">
<mask id="mask0_1288_3906" style="mask-type:alpha" maskUnits="userSpaceOnUse" x="2" y="2" width="61" height="61">
<path fill-rule="evenodd" clip-rule="evenodd" d="M21.0101 2.16672C19.7211 2.66153 19.0773 4.10759 19.5721 5.39659L25.8706 21.8047C27.254 20.8992 28.8278 20.2606 30.519 19.9619L24.24 3.60475C23.7452 2.31575 22.2992 1.67192 21.0101 2.16672ZM35.1026 20.0002C36.787 20.3271 38.3507 20.9921 39.7202 21.9219L46.7608 6.10846C47.3224 4.84712 46.7551 3.36934 45.4938 2.80776C44.2324 2.24617 42.7546 2.81343 42.193 4.07478L35.1026 20.0002ZM43.0805 25.2937C44.0054 26.6661 44.6652 28.2319 44.9864 29.9178L60.9148 23.8035C62.2039 23.3087 62.8477 21.8626 62.3529 20.5736C61.8581 19.2846 60.412 18.6408 59.123 19.1356L43.0805 25.2937ZM44.9405 34.8534C44.5882 36.5305 43.8997 38.0839 42.9488 39.4398L58.4109 46.324C59.6722 46.8856 61.15 46.3183 61.7116 45.057C62.2732 43.7956 61.7059 42.3178 60.4446 41.7563L44.9405 34.8534ZM39.3173 42.8824C37.9164 43.7569 36.3298 44.3617 34.6301 44.6241L40.7158 60.4778C41.2106 61.7668 42.6567 62.4107 43.9457 61.9159C45.2347 61.4211 45.8785 59.975 45.3837 58.686L39.3173 42.8824ZM29.7083 44.4089C28.0474 43.9998 26.5171 43.2588 25.1918 42.2601L18.1956 57.974C17.634 59.2353 18.2013 60.7131 19.4626 61.2747C20.724 61.8363 22.2017 61.269 22.7633 60.0076L29.7083 44.4089ZM22.0084 38.7382C21.1532 37.3265 20.5696 35.7319 20.3299 34.0269L4.04177 40.2793C2.75276 40.7741 2.10893 42.2201 2.60373 43.5091C3.09854 44.7981 4.5446 45.442 5.83361 44.9472L22.0084 38.7382ZM20.5257 29.4564C20.9095 27.7883 21.6272 26.2477 22.6046 24.9088L6.5454 17.7588C5.28406 17.1972 3.80628 17.7645 3.2447 19.0258C2.68311 20.2872 3.25037 21.7649 4.51172 22.3265L20.5257 29.4564Z" fill="#FF6036"/>
<path d="M31.6974 28.2811C32.2553 27.7233 33.1598 27.7233 33.7177 28.2811L36.6974 31.2608C37.2553 31.8187 37.2553 32.7233 36.6974 33.2811L33.7177 36.2608C33.1598 36.8187 32.2553 36.8187 31.6974 36.2608L28.7177 33.2811C28.1598 32.7233 28.1598 31.8187 28.7177 31.2608L31.6974 28.2811Z" fill="#D9D9D9"/>
</mask>
<g mask="url(#mask0_1288_3906)">
<rect x="2.70752" y="2.28687" width="62" height="62" fill="url(#paint0_linear_1288_3906)"/>
</g>
<defs>
<linearGradient id="paint0_linear_1288_3906" x1="45.7075" y1="3.77099" x2="19.7075" y2="61.771" gradientUnits="userSpaceOnUse">
<stop stop-color="#FEB8A4"/>
<stop offset="0.854911" stop-color="#FF6036"/>
</linearGradient>
</defs>
</svg>
