<svg width="93" height="25" viewBox="0 0 93 25" fill="none" xmlns="http://www.w3.org/2000/svg">
<g clip-path="url(#clip0_1263_1288)">
<path d="M7.36396 10.4335C5.17737 10.4335 4.10039 12.4002 4.10039 15.0335V21.6335H1V7.7335H4.03512V11.3335H4.10039C4.7531 9.10016 6.0259 7.3335 8.01667 7.3335C9.42001 7.3335 10.0075 7.8335 10.0075 7.8335L8.60412 10.7002C8.60412 10.7002 8.17985 10.4335 7.36396 10.4335ZM44.6666 12.3668V21.6668H41.6641V13.5002C41.6641 11.1668 40.9461 9.9335 39.1185 9.9335C37.2256 9.9335 36.3118 11.5002 36.3118 14.5002V21.6668H33.3093V13.5002C33.3093 11.2668 32.5913 9.9335 30.7964 9.9335C28.7077 9.9335 27.9244 11.8002 27.9244 14.5002V21.6668H24.8893V7.7335H27.9244V10.9002H27.9571C28.414 8.7335 29.7194 7.36683 31.906 7.36683C34.06 7.36683 35.4633 8.56683 36.0181 10.6668C36.5403 8.6335 37.8783 7.36683 39.967 7.36683C42.8063 7.36683 44.6666 9.20016 44.6666 12.3668ZM16.0777 7.3335C13.271 7.3335 11.4761 8.66683 10.6275 11.1002L13.2057 12.0668C13.6626 10.6002 14.6417 9.76683 16.143 9.76683C17.8074 9.76683 18.8191 10.5335 18.8191 11.6668C18.8191 12.8335 18.0358 13.1002 16.2735 13.4002C14.3154 13.7335 9.61582 13.8335 9.61582 17.8668C9.61582 20.2335 11.5413 22.0002 14.4459 22.0002C16.6325 22.0002 18.1337 21.1002 18.8191 19.4002H18.8517V21.6668H21.8542V13.1002C21.8216 9.3335 19.994 7.3335 16.0777 7.3335ZM18.8844 15.1002C18.8844 18.0335 17.481 19.9002 15.1965 19.9002C13.5974 19.9002 12.6509 19.0002 12.6509 17.6668C12.6509 16.4335 13.63 15.5668 15.5229 15.2002C17.4484 14.8335 18.4275 14.4002 18.8844 13.3002V15.1002ZM55.3711 7.36683C53.0866 7.36683 51.5527 8.66683 50.9 10.6002V7.7335H47.7017V27.0002H50.8673V18.8002H50.9C51.618 20.9002 53.0866 22.0668 55.3711 22.0668C59.0263 22.0668 61.6371 19.0002 61.6371 14.6668C61.6371 10.3335 59.0263 7.36683 55.3711 7.36683ZM54.5878 19.4668C52.0749 19.4668 50.6715 17.6002 50.6715 14.7002C50.6715 11.8002 52.238 9.9335 54.5878 9.9335C56.9376 9.9335 58.5041 11.9002 58.5041 14.7002C58.5041 17.5002 56.9376 19.4668 54.5878 19.4668Z" fill="#141414"/>
<path d="M93.0001 21.5667V21.6667H80.6312V21.5667C82.4261 20.5333 83.6336 19.5 84.7433 18.4H89.8344L93.0001 21.5667ZM89.9323 5.13333L86.7993 2H86.7014C86.7014 2 86.7667 7.83333 81.4797 13.1667C76.3232 18.3667 70.2856 18.4 70.2856 18.4V18.5L73.4839 21.7C73.4839 21.7 79.4563 21.7667 84.7106 16.4667C89.965 11.2 89.9323 5.13333 89.9323 5.13333Z" fill="#141414"/>
</g>
<defs>
<clipPath id="clip0_1263_1288">
<rect width="93" height="25" fill="white"/>
</clipPath>
</defs>
</svg>
