<svg width="127" height="25" viewBox="0 0 127 25" fill="none" xmlns="http://www.w3.org/2000/svg">
<path fill-rule="evenodd" clip-rule="evenodd" d="M72.7011 8.84731C74.7169 8.84731 76.2646 9.86464 76.9073 10.7961V3.36428C76.9072 3.29268 76.9281 3.22263 76.9676 3.16288C77.007 3.10312 77.0632 3.05632 77.1291 3.02831C77.173 3.00975 77.2201 3.00012 77.2678 3H80.5501C80.6217 2.9999 80.6917 3.02124 80.751 3.06127C80.8104 3.1013 80.8564 3.15819 80.8832 3.22461C80.9014 3.2689 80.9104 3.31641 80.9096 3.36428V23.3618C80.9091 23.4572 80.8712 23.5487 80.8039 23.6165C80.7367 23.6842 80.6455 23.7229 80.5501 23.7241H77.3773C77.3153 23.7244 77.2539 23.7124 77.1967 23.6887C77.1394 23.6651 77.0874 23.6303 77.0437 23.5864C77 23.5425 76.9654 23.4904 76.942 23.433C76.9186 23.3757 76.9068 23.3142 76.9073 23.2523V22.0934C76.2656 23.0258 74.7179 24.045 72.7002 24.045C68.8158 24.045 65.8355 20.5721 65.8355 16.4405C65.8355 12.3089 68.8168 8.84731 72.7011 8.84731ZM69.8671 16.4405C69.8671 18.7111 71.3563 20.3985 73.5477 20.3985C75.7418 20.3985 77.2291 18.7111 77.2291 16.4405C77.2291 14.1708 75.7399 12.4835 73.5486 12.4835C71.3563 12.4835 69.8671 14.1708 69.8671 16.4405ZM60.1883 17.8391V13.0204C60.1885 12.9249 60.2264 12.8333 60.2937 12.7655C60.361 12.6976 60.4523 12.659 60.5479 12.6581H63.3592C63.4068 12.6583 63.4539 12.6491 63.4979 12.631C63.5419 12.6128 63.5818 12.5861 63.6154 12.5524C63.6489 12.5186 63.6754 12.4786 63.6933 12.4345C63.7113 12.3904 63.7202 12.3432 63.7197 12.2957V9.52962C63.7195 9.43391 63.6815 9.34216 63.614 9.27431C63.5465 9.20645 63.4549 9.16797 63.3592 9.16723H60.5479C60.5004 9.16736 60.4533 9.15805 60.4095 9.13985C60.3656 9.12164 60.3258 9.09491 60.2923 9.0612C60.2589 9.02748 60.2325 8.98746 60.2146 8.94345C60.1967 8.89944 60.1878 8.85233 60.1883 8.80484V5.48293C60.1873 5.38754 60.1491 5.29631 60.0817 5.22877C60.0143 5.16122 59.9232 5.12272 59.8278 5.12149H56.5446C56.473 5.12139 56.403 5.14273 56.3436 5.18276C56.2842 5.22279 56.2382 5.27968 56.2115 5.34609C56.1934 5.39011 56.1841 5.43724 56.1841 5.48482C56.1841 8.95206 56.0944 9.15402 53.7021 9.16534C53.6406 9.16534 53.5796 9.17748 53.5228 9.20106C53.4659 9.22464 53.4143 9.25921 53.3708 9.30277C53.3273 9.34634 53.2928 9.39805 53.2694 9.45495C53.2459 9.51185 53.2339 9.57282 53.234 9.63437V12.189C53.2343 12.313 53.2835 12.4319 53.371 12.5197C53.4585 12.6076 53.5772 12.6573 53.7012 12.6581H55.8245C55.872 12.6579 55.9191 12.6672 55.9629 12.6854C56.0068 12.7036 56.0466 12.7304 56.0801 12.7641C56.1135 12.7978 56.1399 12.8378 56.1578 12.8818C56.1757 12.9258 56.1846 12.973 56.1841 13.0204V18.6233C56.1841 22.1821 58.667 23.8912 61.7643 23.8912C62.5282 23.9079 63.291 23.8261 64.034 23.6477C64.112 23.6284 64.1813 23.5833 64.2306 23.5198C64.28 23.4563 64.3064 23.378 64.3058 23.2976V20.5353C64.305 20.4525 64.2761 20.3725 64.2238 20.3083C64.1715 20.2441 64.0989 20.1997 64.0179 20.1824C63.964 20.171 63.9081 20.1723 63.8547 20.1861C63.4661 20.274 63.0686 20.3158 62.6703 20.3107C60.9461 20.3107 60.1874 19.6133 60.1874 17.8382L60.1883 17.8391ZM21.2909 16.4405C21.2909 12.1343 24.5345 8.84731 28.9766 8.84731C32.8052 8.84731 36.163 11.2915 36.1696 16.0139C36.1696 16.2933 36.1696 16.6123 36.1385 17.0407C36.1323 17.1324 36.092 17.2184 36.0253 17.2817C35.9587 17.3449 35.8708 17.3809 35.7789 17.3823H25.1847C25.4178 19.3321 27.1401 20.4079 29.07 20.4079C30.7102 20.4079 31.9436 19.7152 32.6401 18.8498C32.6978 18.7807 32.7796 18.7361 32.869 18.725C32.9584 18.714 33.0486 18.7374 33.1214 18.7904L35.5232 20.5693C35.5619 20.5974 35.5947 20.6329 35.6196 20.6738C35.6445 20.7147 35.661 20.7601 35.6682 20.8074C35.6754 20.8548 35.6731 20.903 35.6615 20.9495C35.6499 20.9959 35.6292 21.0396 35.6006 21.078C34.2256 22.8635 31.9465 24.045 29.0341 24.045C24.6807 24.045 21.2909 21.0383 21.2909 16.4405ZM28.8624 12.139C27.3685 12.139 25.7037 12.8912 25.3244 14.671H32.1635C31.8134 12.9478 30.3563 12.139 28.8624 12.139ZM47.5858 9.16723H51.4447C51.5103 9.16693 51.5748 9.18463 51.631 9.21841C51.6872 9.25219 51.7331 9.30075 51.7637 9.3588C51.7946 9.41683 51.8091 9.48215 51.8058 9.5478C51.8025 9.61344 51.7814 9.67696 51.7448 9.73157L47.2961 16.3782C47.254 16.4389 47.2314 16.511 47.2314 16.5849C47.2314 16.6588 47.254 16.7309 47.2961 16.7916L51.8392 23.1419C51.8776 23.1961 51.9004 23.2597 51.9052 23.3259C51.91 23.3922 51.8966 23.4584 51.8665 23.5176C51.8364 23.5768 51.7907 23.6266 51.7343 23.6617C51.6779 23.6967 51.613 23.7157 51.5466 23.7166H47.6868C47.6294 23.7164 47.5728 23.7024 47.5219 23.6758C47.471 23.6492 47.4272 23.6108 47.3943 23.5637L44.4508 19.4094L41.5101 23.5637C41.4771 23.6107 41.4333 23.649 41.3824 23.6756C41.3315 23.7022 41.275 23.7163 41.2176 23.7166H37.3276C37.2777 23.7169 37.2282 23.7068 37.1824 23.6869C37.1367 23.6671 37.0955 23.6378 37.0617 23.6012C37.0278 23.5645 37.002 23.5211 36.9859 23.4739C36.9698 23.4266 36.9637 23.3766 36.968 23.3268C36.9727 23.2603 36.9955 23.1963 37.0341 23.1419L41.5838 16.7916C41.6251 16.7306 41.6473 16.6586 41.6473 16.5849C41.6473 16.5112 41.6251 16.4392 41.5838 16.3782L37.1322 9.73157C37.1052 9.69073 37.0867 9.64488 37.0778 9.59674C37.0689 9.5486 37.0697 9.49916 37.0803 9.45136C37.0908 9.40356 37.1109 9.35836 37.1393 9.31847C37.1677 9.27857 37.2038 9.24479 37.2455 9.21913C37.3015 9.18516 37.3658 9.16721 37.4314 9.16723H41.2591C41.3185 9.16712 41.3769 9.18181 41.4292 9.20999C41.4814 9.23817 41.5258 9.27894 41.5583 9.3286L44.4225 13.6197L47.2857 9.3286C47.3185 9.27918 47.3629 9.23859 47.4151 9.21044C47.4673 9.1823 47.5265 9.16745 47.5858 9.16723ZM124.73 8.99264C123.095 8.99264 121.605 10.0685 121.107 11.4954V9.52962C121.107 9.43399 121.07 9.34225 121.002 9.27436C120.935 9.20648 120.844 9.16798 120.748 9.16723H117.467C117.419 9.16682 117.372 9.17596 117.328 9.19412C117.284 9.21227 117.244 9.23907 117.211 9.27292C117.143 9.34136 117.105 9.43352 117.105 9.52962V23.3523C117.105 23.4482 117.144 23.5401 117.211 23.608C117.279 23.6758 117.371 23.7142 117.467 23.7147H120.748C120.844 23.714 120.935 23.6755 121.002 23.6076C121.07 23.5397 121.107 23.4479 121.107 23.3523V16.7595C121.107 14.3737 122.365 12.8902 124.264 12.8902C124.724 12.8902 125.181 12.9516 125.623 13.0724C125.676 13.0865 125.732 13.0883 125.786 13.0775C125.84 13.0667 125.891 13.0436 125.935 13.01C125.978 12.9765 126.014 12.9333 126.038 12.8839C126.063 12.8345 126.075 12.7801 126.075 12.7251V9.44751C126.074 9.36384 126.045 9.283 125.992 9.21821C125.939 9.15342 125.865 9.1085 125.784 9.09079C125.437 9.01963 125.084 8.98671 124.73 8.99264ZM82.8971 16.4405C82.8971 12.1928 86.3436 8.84731 90.5809 8.84731C94.8173 8.84731 98.2647 12.1843 98.2647 16.4405C98.2647 20.6967 94.8182 24.045 90.5809 24.045C86.3436 24.045 82.8971 20.6891 82.8971 16.4405ZM86.9287 16.4405C86.9287 18.6818 88.4773 20.3107 90.5809 20.3107C92.6845 20.3107 94.2029 18.6818 94.2029 16.4414C94.2029 14.201 92.6845 12.5712 90.5809 12.5712C88.4773 12.5712 86.9287 14.2001 86.9287 16.4405ZM107.436 8.84731C103.2 8.84731 99.752 12.1928 99.752 16.4405C99.752 20.6882 103.2 24.045 107.436 24.045C111.671 24.045 115.12 20.6976 115.12 16.4405C115.12 12.1834 111.671 8.84731 107.436 8.84731ZM107.436 20.3107C105.332 20.3107 103.784 18.6818 103.784 16.4414C103.784 14.201 105.332 12.5712 107.436 12.5712C109.539 12.5712 111.059 14.2001 111.059 16.4405C111.059 18.6809 109.539 20.3107 107.436 20.3107ZM5.65907 11.8153C6.94536 9.91277 9.24049 8.67083 11.9301 8.67083C16.0919 8.67083 19.3053 11.6436 19.3053 15.4251V23.3523C19.3048 23.448 19.2667 23.5396 19.1993 23.6074C19.1318 23.6752 19.0404 23.7137 18.9448 23.7147H15.6352C15.5877 23.7148 15.5406 23.7055 15.4968 23.6873C15.4529 23.6691 15.4131 23.6424 15.3796 23.6087C15.3462 23.575 15.3198 23.5349 15.3019 23.4909C15.284 23.4469 15.2751 23.3998 15.2756 23.3523V15.9762C15.2756 14.3379 14.0204 12.4788 11.9301 12.4788C9.74067 12.4788 8.58555 14.3379 8.58555 15.9762V23.3504C8.58457 23.4461 8.54621 23.5375 8.47866 23.6053C8.41111 23.673 8.31975 23.7116 8.22411 23.7128H4.91353C4.86608 23.7132 4.81903 23.7041 4.77512 23.6861C4.73122 23.6682 4.69132 23.6416 4.65777 23.6081C4.62422 23.5745 4.59768 23.5346 4.5797 23.4907C4.56171 23.4468 4.55265 23.3998 4.55302 23.3523V16.2149C4.55183 16.1106 4.51636 16.0095 4.45207 15.9273C4.38777 15.8451 4.29823 15.7864 4.19724 15.7601C1.2868 14.9645 0.214731 12.743 0.140177 9.56265C0.1391 9.49025 0.159622 9.41917 0.199123 9.35849C0.238625 9.29781 0.295313 9.25028 0.361952 9.22196C0.406439 9.20315 0.454267 9.19352 0.502567 9.19365H3.11385V9.21158H3.90374C3.99698 9.21271 4.08623 9.24955 4.15312 9.31451C4.22001 9.37946 4.25944 9.4676 4.2633 9.56076C4.30105 10.8622 4.56152 11.5615 5.17588 11.9323C5.25587 11.9784 5.35054 11.9918 5.44018 11.9699C5.52983 11.9479 5.60755 11.8922 5.65718 11.8144L5.65907 11.8153Z" fill="#141414"/>
</svg>
