<svg width="64" height="65" viewBox="0 0 64 65" fill="none" xmlns="http://www.w3.org/2000/svg">
<g clip-path="url(#clip0_1045_1123)">
<mask id="mask0_1045_1123" style="mask-type:alpha" maskUnits="userSpaceOnUse" x="0" y="0" width="64" height="65">
<mask id="mask1_1045_1123" style="mask-type:luminance" maskUnits="userSpaceOnUse" x="0" y="0" width="64" height="65">
<path d="M64 0.751221H0V64.7512H64V0.751221Z" fill="white"/>
</mask>
<g mask="url(#mask1_1045_1123)">
<path fill-rule="evenodd" clip-rule="evenodd" d="M32 64.7512C49.673 64.7512 64 50.4242 64 32.7512C64 15.0781 49.673 0.751221 32 0.751221C14.3269 0.751221 0 15.0781 0 32.7512C0 50.4242 14.3269 64.7512 32 64.7512ZM32 60.9112C47.5523 60.9112 60.16 48.3035 60.16 32.7512C60.16 17.1989 47.5523 4.59122 32 4.59122C16.4476 4.59122 3.84 17.1989 3.84 32.7512C3.84 48.3035 16.4476 60.9112 32 60.9112ZM32 57.0712C45.4317 57.0712 56.32 46.1829 56.32 32.7512C56.32 19.3197 45.4317 8.43122 32 8.43122C18.5684 8.43122 7.68 19.3197 7.68 32.7512C7.68 46.1829 18.5684 57.0712 32 57.0712ZM32 53.2312C43.3107 53.2312 52.48 44.0619 52.48 32.7512C52.48 21.4404 43.3107 12.2712 32 12.2712C20.6892 12.2712 11.52 21.4404 11.52 32.7512C11.52 44.0619 20.6892 53.2312 32 53.2312ZM48.64 32.7512C48.64 41.9413 41.1901 49.3912 32 49.3912C22.81 49.3912 15.36 41.9413 15.36 32.7512C15.36 23.5612 22.81 16.1112 32 16.1112C41.1901 16.1112 48.64 23.5612 48.64 32.7512ZM44.8 32.7512C44.8 39.8203 39.0691 45.5512 32 45.5512C24.9308 45.5512 19.2 39.8203 19.2 32.7512C19.2 25.682 24.9308 19.9512 32 19.9512C39.0691 19.9512 44.8 25.682 44.8 32.7512Z" fill="#FF6036"/>
</g>
</mask>
<g mask="url(#mask0_1045_1123)">
<rect y="0.751221" width="64" height="64" fill="url(#paint0_linear_1045_1123)"/>
</g>
</g>
<defs>
<linearGradient id="paint0_linear_1045_1123" x1="16" y1="58.7512" x2="46.5" y2="5.25122" gradientUnits="userSpaceOnUse">
<stop stop-color="#FF6036"/>
<stop offset="1" stop-color="#FEB8A4"/>
</linearGradient>
<clipPath id="clip0_1045_1123">
<rect width="64" height="64" fill="white" transform="translate(0 0.751221)"/>
</clipPath>
</defs>
</svg>
