<svg width="41" height="43" viewBox="0 0 41 43" fill="none" xmlns="http://www.w3.org/2000/svg">
<g clip-path="url(#clip0_362_170)">
<path d="M14.3414 36.551C14.3418 36.7579 14.2932 36.9619 14.1999 37.1457C14.1066 37.3296 13.9712 37.488 13.8051 37.6075L6.66256 42.7601C6.38739 42.9587 6.04592 43.038 5.71327 42.9805C5.38062 42.923 5.08404 42.7335 4.88878 42.4537C4.69352 42.1739 4.61558 41.8265 4.67209 41.4882C4.7286 41.15 4.91494 40.8484 5.19012 40.6498L12.3326 35.4972C12.5229 35.3597 12.7466 35.2782 12.9794 35.2614C13.2122 35.2447 13.4451 35.2933 13.6525 35.4021C13.8599 35.5109 14.0339 35.6757 14.1554 35.8783C14.2769 36.0809 14.3412 36.3136 14.3414 36.551Z" fill="#5114D6"/>
<path d="M12.1535 25.9014C12.1536 26.2398 12.0233 26.5647 11.7905 26.8065C11.5577 27.0483 11.241 27.1878 10.9083 27.195L1.2995 27.4072C1.13242 27.4109 0.966262 27.381 0.810513 27.3194C0.654764 27.2578 0.512479 27.1656 0.391796 27.048C0.271113 26.9304 0.174389 26.7899 0.107161 26.6343C0.0399325 26.4787 0.0035284 26.3111 1.51004e-08 26.1412C0.00523873 25.8018 0.136453 25.4771 0.36733 25.232C0.598206 24.9869 0.911662 24.8396 1.24484 24.8197L10.8537 24.6071C11.0208 24.6033 11.1871 24.6331 11.3429 24.6948C11.4987 24.7564 11.641 24.8487 11.7617 24.9663C11.8825 25.0839 11.9792 25.2245 12.0464 25.3802C12.1137 25.5358 12.1501 25.7034 12.1535 25.8734L12.1535 25.9014Z" fill="#5114D6"/>
<path d="M17.2832 16.7887C17.2834 17.0485 17.2067 17.3024 17.063 17.5172C16.9194 17.732 16.7154 17.8978 16.4778 17.9931C16.2402 18.0884 15.9798 18.1087 15.7307 18.0514C15.4815 17.9941 15.2551 17.8619 15.0809 17.6719L7.706 9.64335C7.47564 9.39253 7.3527 9.05897 7.36421 8.71597C7.37571 8.37296 7.52074 8.04863 7.76737 7.81436C8.01401 7.5801 8.34205 7.45509 8.67934 7.4668C9.01663 7.4785 9.33551 7.62594 9.56588 7.87676L16.9408 15.9057C17.1612 16.1451 17.2836 16.4608 17.2832 16.7887Z" fill="#5114D6"/>
<path d="M25.7122 12.1515C25.7135 12.4946 25.5807 12.8242 25.3431 13.0677C25.1055 13.3113 24.7825 13.4488 24.4451 13.4502C24.1078 13.4515 23.7837 13.3165 23.5442 13.0749C23.3047 12.8332 23.1695 12.5047 23.1681 12.1617L23.0891 1.30402L23.0891 1.29395C23.0884 1.12408 23.1207 0.955664 23.184 0.798466C23.2473 0.641268 23.3405 0.498342 23.4581 0.377751C23.5758 0.257162 23.7156 0.161277 23.8697 0.0956545C24.0238 0.0300312 24.1891 -0.00405787 24.3561 -0.00472353C24.5231 -0.0053892 24.6887 0.0274201 24.8432 0.0918131C24.9978 0.156206 25.1384 0.250934 25.257 0.370582C25.3756 0.490231 25.4698 0.632474 25.5344 0.789162C25.5989 0.94585 25.6324 1.11392 25.6331 1.28379L25.7118 12.1414L25.7122 12.1515Z" fill="#5114D6"/>
<path d="M41 5.90454C41.0001 6.16418 40.9231 6.41774 40.7789 6.63202L34.6936 15.7139C34.5034 15.9974 34.2103 16.1926 33.8787 16.2563C33.5471 16.32 33.2042 16.2472 32.9255 16.0538C32.6467 15.8605 32.4549 15.5623 32.3922 15.2251C32.3295 14.8879 32.4012 14.5392 32.5913 14.2557L38.6763 5.17595C38.8295 4.9471 39.0507 4.77416 39.3076 4.68269C39.5646 4.59122 39.8435 4.58601 40.1036 4.66775C40.3636 4.74949 40.5911 4.91393 40.7524 5.13686C40.9138 5.3598 41.0005 5.62944 41 5.90625L41 5.90454Z" fill="#5114D6"/>
</g>
<defs>
<clipPath id="clip0_362_170">
<rect width="43" height="41" fill="white" transform="translate(0 43) rotate(-90)"/>
</clipPath>
</defs>
</svg>
