<svg width="101" height="25" viewBox="0 0 101 25" fill="none" xmlns="http://www.w3.org/2000/svg">
<path d="M12.1191 16.3833V2.0415H16.7018V15.7929C16.7018 16.7609 16.9105 16.9973 17.8821 16.9973H18.2762L18.8158 20.7917C18.4687 20.8387 17.0489 20.9419 16.1926 20.9419C13.6697 20.9419 12.1191 20.0445 12.1191 16.3833Z" fill="#141414"/>
<path d="M55.8275 14.2816C55.8275 12.6995 55.5499 11.306 53.5593 11.306C51.4304 11.306 50.8048 12.4161 50.8048 14.2816C50.8048 16.1471 51.268 17.1631 53.5593 17.1631C55.5036 17.1631 55.8275 15.8637 55.8275 14.2816ZM46.2222 7.62366L49.7861 7.34008L50.134 8.42431C50.8511 7.73882 52.1014 7.0542 54.7859 7.0542C59.4154 7.0542 60.4795 10.3848 60.4795 14.0923C60.4795 17.8241 59.2993 21.1077 54.5082 21.1077C52.3792 21.1077 51.3836 20.6115 50.805 20.0681V24.7916H46.2223L46.2222 7.62366Z" fill="#141414"/>
<path d="M76.8286 7.6241L80.3926 7.34052L80.8557 8.75529C81.4344 7.95203 83.0317 7.26742 84.9298 7.19678V11.6977C81.8745 11.7205 81.4113 12.652 81.4113 14.4948V20.8953H76.8286V7.6241Z" fill="#141414"/>
<path d="M86.2083 7.20445H88.5687L89.309 4.45699L92.8506 3.67725V7.20445H95.7436V11.7029H92.8506V15.6053C92.8506 16.5263 92.9898 16.9982 94.424 16.9982H95.7436V20.8948C95.0496 20.9419 94.2855 20.9656 93.4292 20.9656C89.5636 20.9656 88.2911 19.7141 88.2911 16.3137V11.7031H86.2083V7.20445Z" fill="#141414"/>
<path d="M100.83 20.8917H97.0134V16.9966H100.83V20.8917Z" fill="#141414"/>
<path d="M0.795898 7.36176H3.29493V7.10194C3.29493 3.70144 4.54526 2 8.85011 2C9.98424 2 10.192 2.02288 10.7475 2.07128V5.8737H9.47486C8.15607 5.8737 7.87838 6.20434 7.87838 7.07818V7.36176H10.7475V11.3291H7.87838V20.8946H3.29493V11.3291H0.795898V7.36176Z" fill="#141414"/>
<path d="M25.9929 10.8906C27.8791 10.8906 28.0176 11.806 28.086 12.9097H23.3705C23.5545 11.6183 24.1528 10.8906 25.9929 10.8906ZM28.7912 16.8567C28.0335 17.3092 27.6427 17.4106 26.1305 17.4106C24.3367 17.4106 23.6466 16.7592 23.4166 15.6563H32.2269C32.3876 10.8906 31.9968 7.04102 26.1305 7.04102C20.2419 7.04102 18.9995 10.3505 18.9995 14.0361C18.9995 17.8159 20.2419 21.1432 26.1305 21.1432C28.4529 21.1432 29.9173 20.7039 31.4717 19.6732L28.7912 16.8567Z" fill="#141414"/>
<path d="M40.3134 20.9002L38.0658 17.6224L35.8191 20.9002H30.696L35.4919 13.9279L31.1362 7.62806L36.3149 7.62402L38.0881 10.1953L39.8629 7.62479L45.0989 7.62806L40.6604 13.8971L45.4706 20.9002H40.3134Z" fill="#141414"/>
<path d="M71.1949 14.2343C71.1949 12.5336 70.7785 11.3057 68.6259 11.3057C66.4739 11.3057 66.0568 12.5336 66.0568 14.2343C66.0568 15.9114 66.4737 17.1629 68.6259 17.1629C70.7787 17.1629 71.1949 15.9114 71.1949 14.2343ZM61.428 14.0923C61.428 9.60602 63.4416 7.0542 68.6259 7.0542C73.8102 7.0542 75.8007 9.60602 75.8007 14.0923C75.8007 18.5803 73.8102 21.1548 68.6259 21.1548C63.4416 21.1548 61.428 18.5803 61.428 14.0923Z" fill="#141414"/>
</svg>
