<svg width="97" height="97" viewBox="0 0 97 97" fill="none" xmlns="http://www.w3.org/2000/svg">
<circle opacity="0.3" cx="48.5" cy="48.5" r="48.5" fill="url(#paint0_linear_892_9562)"/>
<circle cx="48.5" cy="48.5" r="38.5" fill="url(#paint1_linear_892_9562)"/>
<path d="M57.9746 49.813C57.9746 52.2101 57.0818 54.5152 55.4805 56.2837L55.1504 56.6294C53.3425 58.4373 50.8908 59.4536 48.334 59.4536C45.9369 59.4536 43.6318 58.5608 41.8633 56.9595L41.5166 56.6294C39.7089 54.8215 38.6934 52.3696 38.6934 49.813V37.0386C38.6934 35.5648 39.2792 34.151 40.3213 33.1089L40.5205 32.9185C41.5398 31.9956 42.8685 31.481 44.25 31.481C46.5737 31.481 47.997 32.0512 49.0547 33.1089L49.2441 33.3091C50.1671 34.3284 50.6816 35.657 50.6816 37.0386V49.2876C50.6816 49.8328 50.4655 50.3561 50.0801 50.7417C49.6944 51.1274 49.1704 51.3442 48.625 51.3442C48.1479 51.3442 47.6881 51.1782 47.3223 50.8784L47.1709 50.7417C46.7854 50.356 46.5684 49.8329 46.5684 49.2876V37.0386C46.5684 36.7037 46.4525 36.3804 46.2422 36.1235L46.1455 36.0171C45.9082 35.7799 45.5716 35.5942 44.25 35.5942C43.8673 35.5943 43.5002 35.7465 43.2295 36.0171C42.9587 36.2878 42.8066 36.6557 42.8066 37.0386V49.813C42.8067 51.279 43.3892 52.6846 44.4258 53.7212L44.624 53.9106C45.638 54.8288 46.9596 55.3403 48.334 55.3403C49.8 55.3403 51.2065 54.7578 52.2432 53.7212L52.4316 53.5229C53.3498 52.509 53.8613 51.1874 53.8613 49.813V37.1938C53.8613 35.7201 54.4472 34.3063 55.4893 33.2642L55.6885 33.0747C56.7079 32.1515 58.0371 31.6372 59.4189 31.6372C60.8924 31.6373 62.3057 32.2223 63.3477 33.2642L63.5381 33.4644C64.4609 34.4837 64.9756 35.8123 64.9756 37.1938V50.4185L64.9697 50.8472C64.7411 59.8259 57.3666 67.059 48.334 67.0591C39.158 67.0591 31.6926 59.5946 31.6924 50.4185V33.5376L31.7031 33.3345C31.7499 32.8637 31.9575 32.4209 32.2949 32.0835L32.4463 31.9468C32.8121 31.6472 33.272 31.481 33.749 31.481C34.2943 31.481 34.8175 31.698 35.2031 32.0835L35.3398 32.2349C35.6396 32.6007 35.8056 33.0605 35.8057 33.5376V50.4194C35.8006 52.0677 36.1208 53.7008 36.748 55.2251L36.8691 55.5093C37.4916 56.9219 38.3708 58.2077 39.4619 59.3022C40.6257 60.4696 42.0078 61.3968 43.5303 62.0288L43.8174 62.1431C45.2572 62.6996 46.7885 62.9858 48.334 62.9858C49.9822 62.9858 51.6144 62.6607 53.1367 62.0288L53.4209 61.9067C54.8316 61.2799 56.1149 60.3967 57.2061 59.3022C58.3698 58.1349 59.2916 56.7494 59.9189 55.2251L60.0332 54.938C60.5852 53.4966 60.867 51.9647 60.8623 50.4194V37.1909L60.8564 37.0483C60.8479 36.954 60.8296 36.8608 60.8027 36.77L60.7559 36.6353C60.7021 36.503 60.6287 36.3795 60.5391 36.269L60.4434 36.1626C60.3428 36.0612 60.2279 35.9752 60.1025 35.9077L59.9736 35.8462C59.7977 35.7729 59.6086 35.7349 59.418 35.7349C59.2751 35.7349 59.1333 35.7568 58.9971 35.7983L58.8633 35.8462C58.7313 35.9012 58.6078 35.9752 58.498 36.0659L58.3926 36.1626C58.2921 36.264 58.207 36.3795 58.1406 36.5054L58.0811 36.6353C58.0093 36.8117 57.9731 37.0005 57.9746 37.1909V49.813Z" fill="url(#paint2_linear_892_9562)"/>
<path d="M57.9746 49.813C57.9746 52.2101 57.0818 54.5152 55.4805 56.2837L55.1504 56.6294C53.3425 58.4373 50.8908 59.4536 48.334 59.4536C45.9369 59.4536 43.6318 58.5608 41.8633 56.9595L41.5166 56.6294C39.7089 54.8215 38.6934 52.3696 38.6934 49.813V37.0386C38.6934 35.5648 39.2792 34.151 40.3213 33.1089L40.5205 32.9185C41.5398 31.9956 42.8685 31.481 44.25 31.481C46.5737 31.481 47.997 32.0512 49.0547 33.1089L49.2441 33.3091C50.1671 34.3284 50.6816 35.657 50.6816 37.0386V49.2876C50.6816 49.8328 50.4655 50.3561 50.0801 50.7417C49.6944 51.1274 49.1704 51.3442 48.625 51.3442C48.1479 51.3442 47.6881 51.1782 47.3223 50.8784L47.1709 50.7417C46.7854 50.356 46.5684 49.8329 46.5684 49.2876V37.0386C46.5684 36.7037 46.4525 36.3804 46.2422 36.1235L46.1455 36.0171C45.9082 35.7799 45.5716 35.5942 44.25 35.5942C43.8673 35.5943 43.5002 35.7465 43.2295 36.0171C42.9587 36.2878 42.8066 36.6557 42.8066 37.0386V49.813C42.8067 51.279 43.3892 52.6846 44.4258 53.7212L44.624 53.9106C45.638 54.8288 46.9596 55.3403 48.334 55.3403C49.8 55.3403 51.2065 54.7578 52.2432 53.7212L52.4316 53.5229C53.3498 52.509 53.8613 51.1874 53.8613 49.813V37.1938C53.8613 35.7201 54.4472 34.3063 55.4893 33.2642L55.6885 33.0747C56.7079 32.1515 58.0371 31.6372 59.4189 31.6372C60.8924 31.6373 62.3057 32.2223 63.3477 33.2642L63.5381 33.4644C64.4609 34.4837 64.9756 35.8123 64.9756 37.1938V50.4185L64.9697 50.8472C64.7411 59.8259 57.3666 67.059 48.334 67.0591C39.158 67.0591 31.6926 59.5946 31.6924 50.4185V33.5376L31.7031 33.3345C31.7499 32.8637 31.9575 32.4209 32.2949 32.0835L32.4463 31.9468C32.8121 31.6472 33.272 31.481 33.749 31.481C34.2943 31.481 34.8175 31.698 35.2031 32.0835L35.3398 32.2349C35.6396 32.6007 35.8056 33.0605 35.8057 33.5376V50.4194C35.8006 52.0677 36.1208 53.7008 36.748 55.2251L36.8691 55.5093C37.4916 56.9219 38.3708 58.2077 39.4619 59.3022C40.6257 60.4696 42.0078 61.3968 43.5303 62.0288L43.8174 62.1431C45.2572 62.6996 46.7885 62.9858 48.334 62.9858C49.9822 62.9858 51.6144 62.6607 53.1367 62.0288L53.4209 61.9067C54.8316 61.2799 56.1149 60.3967 57.2061 59.3022C58.3698 58.1349 59.2916 56.7494 59.9189 55.2251L60.0332 54.938C60.5852 53.4966 60.867 51.9647 60.8623 50.4194V37.1909L60.8564 37.0483C60.8479 36.954 60.8296 36.8608 60.8027 36.77L60.7559 36.6353C60.7021 36.503 60.6287 36.3795 60.5391 36.269L60.4434 36.1626C60.3428 36.0612 60.2279 35.9752 60.1025 35.9077L59.9736 35.8462C59.7977 35.7729 59.6086 35.7349 59.418 35.7349C59.2751 35.7349 59.1333 35.7568 58.9971 35.7983L58.8633 35.8462C58.7313 35.9012 58.6078 35.9752 58.498 36.0659L58.3926 36.1626C58.2921 36.264 58.207 36.3795 58.1406 36.5054L58.0811 36.6353C58.0093 36.8117 57.9731 37.0005 57.9746 37.1909V49.813Z" fill="white"/>
<path d="M57.9746 49.813C57.9746 52.2101 57.0818 54.5152 55.4805 56.2837L55.1504 56.6294C53.3425 58.4373 50.8908 59.4536 48.334 59.4536C45.9369 59.4536 43.6318 58.5608 41.8633 56.9595L41.5166 56.6294C39.7089 54.8215 38.6934 52.3696 38.6934 49.813V37.0386C38.6934 35.5648 39.2792 34.151 40.3213 33.1089L40.5205 32.9185C41.5398 31.9956 42.8685 31.481 44.25 31.481C46.5737 31.481 47.997 32.0512 49.0547 33.1089L49.2441 33.3091C50.1671 34.3284 50.6816 35.657 50.6816 37.0386V49.2876C50.6816 49.8328 50.4655 50.3561 50.0801 50.7417C49.6944 51.1274 49.1704 51.3442 48.625 51.3442C48.1479 51.3442 47.6881 51.1782 47.3223 50.8784L47.1709 50.7417C46.7854 50.356 46.5684 49.8329 46.5684 49.2876V37.0386C46.5684 36.7037 46.4525 36.3804 46.2422 36.1235L46.1455 36.0171C45.9082 35.7799 45.5716 35.5942 44.25 35.5942C43.8673 35.5943 43.5002 35.7465 43.2295 36.0171C42.9587 36.2878 42.8066 36.6557 42.8066 37.0386V49.813C42.8067 51.279 43.3892 52.6846 44.4258 53.7212L44.624 53.9106C45.638 54.8288 46.9596 55.3403 48.334 55.3403C49.8 55.3403 51.2065 54.7578 52.2432 53.7212L52.4316 53.5229C53.3498 52.509 53.8613 51.1874 53.8613 49.813V37.1938C53.8613 35.7201 54.4472 34.3063 55.4893 33.2642L55.6885 33.0747C56.7079 32.1515 58.0371 31.6372 59.4189 31.6372C60.8924 31.6373 62.3057 32.2223 63.3477 33.2642L63.5381 33.4644C64.4609 34.4837 64.9756 35.8123 64.9756 37.1938V50.4185L64.9697 50.8472C64.7411 59.8259 57.3666 67.059 48.334 67.0591C39.158 67.0591 31.6926 59.5946 31.6924 50.4185V33.5376L31.7031 33.3345C31.7499 32.8637 31.9575 32.4209 32.2949 32.0835L32.4463 31.9468C32.8121 31.6472 33.272 31.481 33.749 31.481C34.2943 31.481 34.8175 31.698 35.2031 32.0835L35.3398 32.2349C35.6396 32.6007 35.8056 33.0605 35.8057 33.5376V50.4194C35.8006 52.0677 36.1208 53.7008 36.748 55.2251L36.8691 55.5093C37.4916 56.9219 38.3708 58.2077 39.4619 59.3022C40.6257 60.4696 42.0078 61.3968 43.5303 62.0288L43.8174 62.1431C45.2572 62.6996 46.7885 62.9858 48.334 62.9858C49.9822 62.9858 51.6144 62.6607 53.1367 62.0288L53.4209 61.9067C54.8316 61.2799 56.1149 60.3967 57.2061 59.3022C58.3698 58.1349 59.2916 56.7494 59.9189 55.2251L60.0332 54.938C60.5852 53.4966 60.867 51.9647 60.8623 50.4194V37.1909L60.8564 37.0483C60.8479 36.954 60.8296 36.8608 60.8027 36.77L60.7559 36.6353C60.7021 36.503 60.6287 36.3795 60.5391 36.269L60.4434 36.1626C60.3428 36.0612 60.2279 35.9752 60.1025 35.9077L59.9736 35.8462C59.7977 35.7729 59.6086 35.7349 59.418 35.7349C59.2751 35.7349 59.1333 35.7568 58.9971 35.7983L58.8633 35.8462C58.7313 35.9012 58.6078 35.9752 58.498 36.0659L58.3926 36.1626C58.2921 36.264 58.207 36.3795 58.1406 36.5054L58.0811 36.6353C58.0093 36.8117 57.9731 37.0005 57.9746 37.1909V49.813Z" stroke="url(#paint3_linear_892_9562)" stroke-width="0.612555"/>
<defs>
<linearGradient id="paint0_linear_892_9562" x1="48.5" y1="0" x2="48.5" y2="97" gradientUnits="userSpaceOnUse">
<stop stop-color="#6E2CFF"/>
<stop offset="1" stop-color="#2B0879"/>
</linearGradient>
<linearGradient id="paint1_linear_892_9562" x1="48.5" y1="10" x2="48.5" y2="87" gradientUnits="userSpaceOnUse">
<stop stop-color="#6E2CFF"/>
<stop offset="1" stop-color="#2B0879"/>
</linearGradient>
<linearGradient id="paint2_linear_892_9562" x1="48.334" y1="31.7876" x2="48.334" y2="66.7529" gradientUnits="userSpaceOnUse">
<stop stop-color="#6E2CFF"/>
<stop offset="1" stop-color="#2B0879"/>
</linearGradient>
<linearGradient id="paint3_linear_892_9562" x1="48.334" y1="31.7876" x2="48.334" y2="66.7529" gradientUnits="userSpaceOnUse">
<stop stop-color="#6E2CFF"/>
<stop offset="1" stop-color="#2B0879"/>
</linearGradient>
</defs>
</svg>
