<svg width="95" height="25" viewBox="0 0 95 25" fill="none" xmlns="http://www.w3.org/2000/svg">
<g clip-path="url(#clip0_1263_1176)">
<path d="M31.2458 7.19434H30.7803C30.0432 8.43572 29.0347 9.5025 27.832 10.1038V10.453H29.0928V17.106C29.0928 19.2202 30.2178 20.0154 31.692 20.0154C32.9721 20.0154 33.8838 19.3172 34.4463 18.4831L34.2329 18.1922C33.7286 18.5607 33.3213 18.7352 32.7394 18.7352C31.7307 18.7352 31.2458 18.1922 31.2458 16.8732V10.453H33.9032V9.65766H31.2458V7.19434Z" fill="#141414"/>
<path d="M38.6895 18.6966C37.6033 18.6966 37.0796 17.9789 37.0796 16.9315C37.0796 15.8841 37.6033 15.3798 38.515 15.0307L40.5516 14.1966V17.8431C39.8728 18.3863 39.3684 18.6966 38.6895 18.6966ZM42.7241 12.5285C42.7241 10.3949 41.502 9.46387 39.1745 9.46387C37.1378 9.46387 35.5474 10.2979 35.5474 11.8302C35.5474 12.4122 35.8577 12.8001 36.362 12.9552L37.6421 12.7807C37.5452 12.3734 37.487 12.0436 37.487 11.6945C37.487 10.7247 37.9137 10.007 38.9417 10.007C40.1055 10.007 40.5516 10.8993 40.5516 12.1212V13.5953L37.7003 14.6427C36.1874 15.2052 34.9849 15.8841 34.9849 17.5328C34.9849 19.0264 35.9741 19.9962 37.5258 19.9962C38.8836 19.9962 39.9309 19.0846 40.5904 18.2893C40.7456 19.3561 41.3469 20.0156 42.3555 20.0156C43.1702 20.0156 43.8684 19.6664 44.3728 18.9876L44.2564 18.6385C44.0042 18.7548 43.7327 18.8518 43.4223 18.8518C42.8792 18.8518 42.7241 18.4445 42.7241 17.6686V12.5285Z" fill="#141414"/>
<path d="M52.2066 18.3475C52.2066 19.0652 51.8961 19.201 50.9264 19.2591V19.8216H55.6591V19.2591C54.6893 19.201 54.379 19.0652 54.379 18.3475V12.5867C54.379 10.4919 53.4867 9.46387 51.6828 9.46387C50.1311 9.46387 49.0061 10.3368 48.1332 11.326L48.2108 9.46387H47.8811L44.7389 10.4725V10.744L45.9608 11.4229V18.3475C45.9608 19.0652 45.6505 19.201 44.6807 19.2591V19.8216H49.394V19.2591C48.4436 19.201 48.1332 19.0652 48.1332 18.3475V11.8109C48.8121 11.2677 49.6656 10.8023 50.5772 10.8023C51.6828 10.8023 52.2066 11.3841 52.2066 12.6837V18.3475Z" fill="#141414"/>
<path d="M62.005 10.1429C63.2464 10.1429 64.0611 11.1321 64.0611 12.8002V17.7657C63.5567 18.2894 62.8973 18.561 62.0826 18.561C60.1624 18.561 59.1344 16.7377 59.1344 14.3713C59.1344 11.8304 60.24 10.1429 62.005 10.1429ZM64.0611 6.53513V10.2011C63.5762 9.75495 62.8197 9.48342 61.8692 9.48342C59.1344 9.48342 57.0396 11.6364 57.0396 15.2248C57.0396 18.0566 58.5719 20.0157 60.9383 20.0157C62.3154 20.0157 63.2852 19.2787 64.0611 18.2118L63.9835 20.0157H64.3714L67.5912 19.3175V18.8131L67.0869 18.7743C66.2723 18.6967 66.2335 18.5222 66.2335 17.8627V4.63428H65.9231L62.8391 5.5847V5.87566L64.0611 6.53513Z" fill="#141414"/>
<path d="M73.626 17.6103L71.1238 11.4034C71.0463 11.1707 71.0075 11.0155 71.0075 10.8603C71.0075 10.4142 71.3566 10.3367 72.3458 10.2202V9.65771H67.613V10.2202C68.3113 10.3948 68.4277 10.5306 68.6023 10.938L72.6174 20.1318L72.2682 21.0629C71.8221 22.2655 71.1626 22.5564 70.1152 22.5564C69.5721 22.5564 69.2812 22.4788 68.9126 22.3818V23.1384C69.0872 23.7202 69.7273 24.0693 70.348 24.0693C71.57 24.0693 72.1713 23.2353 72.7531 21.7612L76.9428 10.938C77.098 10.55 77.2338 10.3948 77.932 10.2202V9.65771H74.7121V10.2202C75.7014 10.3367 76.0505 10.4142 76.0505 10.8603C76.0505 11.0155 76.0117 11.1707 75.9342 11.4034L73.626 17.6103Z" fill="#141414"/>
<path d="M91.5875 18.3475C91.5875 19.0652 91.3157 19.201 90.3456 19.2591V19.8216H95.0399V19.2591C94.0698 19.201 93.7593 19.0652 93.7593 18.3475V12.6061C93.7593 10.5307 92.9641 9.46387 91.1996 9.46387C89.6472 9.46387 88.5423 10.3756 87.6689 11.3841C87.3972 10.0652 86.6214 9.46387 85.2254 9.46387C83.6536 9.46387 82.6649 10.3173 81.7923 11.326L81.8698 9.46387H81.5399L78.3976 10.4725V10.744L79.6195 11.4229V18.3475C79.6195 19.0652 79.3092 19.201 78.3394 19.2591V19.8216H83.0528V19.2591C82.0827 19.201 81.7923 19.0652 81.7923 18.3475V11.8109C82.4706 11.2677 83.1883 10.8023 84.081 10.8023C85.1673 10.8023 85.6133 11.4035 85.6133 12.6837V18.3475C85.6133 19.0652 85.3222 19.201 84.352 19.2591V19.8216H89.027V19.2591C88.0569 19.201 87.7851 19.0652 87.7851 18.3475V11.8109C88.4641 11.2677 89.1819 10.8023 90.0746 10.8023C91.1601 10.8023 91.5875 11.4035 91.5875 12.6837V18.3475Z" fill="#141414"/>
<path fill-rule="evenodd" clip-rule="evenodd" d="M1.95975 6.50142L1.96001 14.7316L14.5558 22.0044L14.5557 20.5369L16.5154 21.6684L16.5156 24.1057C16.5156 24.8198 16.0143 25.1094 15.3957 24.7523L1.1202 16.5096C0.50174 16.1525 0.000346802 15.2841 0.000324221 14.5699L7.62736e-10 4.40006C-2.25799e-05 3.6859 0.501329 3.39645 1.1198 3.75355L15.3954 11.9961C16.0138 12.3532 16.5153 13.2217 16.5153 13.9358L16.5153 16.0739L14.5557 14.9424L14.5556 13.7742L1.95975 6.50142Z" fill="#141414"/>
<path fill-rule="evenodd" clip-rule="evenodd" d="M4.73462 1.7995C4.73458 1.08533 5.23593 0.795857 5.85441 1.15296L20.13 9.39557C20.7485 9.75266 21.2498 10.6211 21.2499 11.3352L21.2502 21.5052C21.2502 22.2193 20.7489 22.5087 20.1304 22.1516L5.85481 13.909C5.23635 13.5519 4.73497 12.6836 4.73493 11.9694L4.7348 9.57815L6.69452 10.7096L6.6946 12.1311L19.2905 19.4038L19.2901 11.1736L6.69439 3.90084L6.69447 5.46253L4.73475 4.33105L4.73462 1.7995Z" fill="#141414"/>
</g>
<defs>
<clipPath id="clip0_1263_1176">
<rect width="95" height="25" fill="white"/>
</clipPath>
</defs>
</svg>
