<svg width="44" height="44" viewBox="0 0 44 44" fill="none" xmlns="http://www.w3.org/2000/svg">
<circle cx="22" cy="22" r="22" fill="white"/>
<circle cx="22" cy="22" r="21.5" stroke="black" stroke-opacity="0.1"/>
<path d="M35.0737 22.3102C35.0737 21.3445 34.987 20.416 34.8261 19.5245H21.9995V24.7988H29.329C29.0071 26.495 28.0414 27.9311 26.5928 28.8968V32.3263H31.0128C33.588 29.9492 35.0737 26.4578 35.0737 22.3102Z" fill="#4285F4"/>
<path d="M21.9998 35.6191C25.6769 35.6191 28.7597 34.4057 31.013 32.3257L26.5931 28.8963C25.3798 29.7134 23.8322 30.2086 21.9998 30.2086C18.4589 30.2086 15.4503 27.8191 14.3732 24.6001H9.8418V28.1163C12.0827 32.561 16.676 35.6191 21.9998 35.6191Z" fill="#34A853"/>
<path d="M14.3732 24.5876C14.1008 23.7705 13.9399 22.9038 13.9399 22C13.9399 21.0962 14.1008 20.2295 14.3732 19.4124V15.8962H9.8418C8.91324 17.7286 8.38086 19.7962 8.38086 22C8.38086 24.2038 8.91324 26.2714 9.8418 28.1038L13.3703 25.3552L14.3732 24.5876Z" fill="#FBBC05"/>
<path d="M21.9998 13.8037C24.0055 13.8037 25.7883 14.497 27.2121 15.8341L31.1121 11.9342C28.7474 9.73037 25.6769 8.38086 21.9998 8.38086C16.676 8.38086 12.0827 11.4389 9.8418 15.896L14.3732 19.4122C15.4503 16.1932 18.4589 13.8037 21.9998 13.8037Z" fill="#EA4335"/>
</svg>
