<svg width="190" height="30" viewBox="0 0 190 30" fill="none" xmlns="http://www.w3.org/2000/svg">
<g clip-path="url(#clip0_692_833)">
<path d="M0.807175 14.1256C1.47982 10.6278 4.57399 8.2063 8.87893 8.2063C13.8565 8.2063 17.7579 10.3588 17.7579 17.0852V29.5964H13.4529L12.9148 26.9058C11.435 28.7893 9.41704 30 6.4574 30C2.82511 30 0 27.713 0 23.5426C0 19.3722 3.76682 16.6816 9.01346 16.6816H12.5112V15.7399C12.5112 13.3184 10.7623 12.6458 8.7444 12.6458C7.26458 12.6458 5.78476 13.1839 5.11211 15.0673L0.807175 14.1256ZM7.66816 25.5606C10.0897 25.5606 12.5112 23.9462 12.5112 21.2556V20.852H9.14799C6.86099 20.7175 5.5157 21.6592 5.5157 23.5426C5.5157 24.4843 6.32287 25.5606 7.66816 25.5606Z" fill="#151515"/>
<path d="M102.242 14.1256C102.914 10.6278 106.009 8.2063 110.313 8.2063C115.291 8.2063 119.192 10.3588 119.192 17.0852V29.5964H114.887L114.349 26.9058C112.87 28.7893 110.852 30 107.892 30C104.26 30 101.435 27.713 101.435 23.5426C101.435 19.3722 105.201 16.6816 110.448 16.6816H113.946V15.7399C113.946 13.3184 112.197 12.6458 110.179 12.6458C108.699 12.6458 107.219 13.1839 106.547 15.0673L102.242 14.1256ZM109.103 25.5606C111.524 25.5606 113.946 23.9462 113.946 21.2556V20.852H110.448C108.161 20.852 106.816 21.6592 106.816 23.5426C106.95 24.4843 107.757 25.5606 109.103 25.5606Z" fill="#151515"/>
<path d="M123.901 29.731V8.47536H129.148V11.9731C130.628 9.41706 133.049 8.2063 135.336 8.2063C136.278 8.2063 137.085 8.34083 137.892 8.60989L136.951 13.4529C136.278 13.0493 135.605 12.7803 134.798 12.7803C131.704 12.7803 129.148 15.3363 129.148 22.0628V29.5964L123.901 29.731Z" fill="#151515"/>
<path d="M149.058 8.20628C151.211 8.20628 153.229 9.28251 154.171 10.4933V0H159.417V29.7309H154.171V27.5785C153.498 28.6547 151.614 30.1345 149.058 30.1345C142.736 30.1345 139.507 25.6951 139.507 19.2377C139.507 12.7803 142.736 8.20628 149.058 8.20628ZM149.866 25.5605C152.556 25.5605 154.709 23.2735 154.709 19.1031C154.709 14.9327 152.556 12.6457 149.866 12.6457C147.175 12.6457 145.023 14.9327 145.023 19.1031C145.023 23.2735 147.175 25.5605 149.866 25.5605Z" fill="#151515"/>
<path d="M178.251 11.5695L175.157 14.3947C174.215 13.0494 172.735 12.5112 171.659 12.5112C170.583 12.5112 169.641 13.1839 169.641 14.2601C169.641 15.2018 170.448 15.8745 171.659 16.2781C174.619 17.3543 179.327 18.296 179.327 22.7355C179.327 26.6368 176.368 29.731 171.794 29.731C167.354 29.731 164.395 26.6368 163.453 24.0808L167.623 21.7938C168.43 23.8117 169.776 25.2915 171.928 25.2915C173.543 25.2915 174.619 24.4843 174.619 23.0045C174.619 21.2556 171.928 20.8521 169.372 19.7758C167.085 18.8341 165.067 17.3543 165.067 14.1256C165.067 10.8969 167.758 7.93726 171.794 7.93726C174.484 8.07179 177.04 9.55161 178.251 11.5695Z" fill="#151515"/>
<path d="M69.821 8.47534L66.0542 23.139L62.4219 8.47534H57.5789L54.0811 23.139L51.1215 14.6637L50.7179 15.6054L49.1035 21.1211L51.7941 29.7309H56.3681L60.0004 16.009L63.6327 29.7309H68.3412L75.0676 8.47534H69.821Z" fill="#151515"/>
<path d="M94.978 8.47534L91.2112 23.139L87.5789 8.47534H82.7358L79.2381 23.139L76.2784 14.6637L75.8749 15.6054L74.126 21.1211L76.9511 29.7309H81.5251L85.1574 16.009L88.7897 29.7309H93.3637L100.225 8.47534H94.978Z" fill="#151515"/>
<path d="M49.9104 8.47534L43.1839 29.5964H38.61L34.9777 16.009L31.3454 29.7309H26.7714L20.0449 8.60987H25.2916L29.0584 23.139L32.6907 8.60987H37.5337L41.166 23.139L44.9328 8.60987L49.9104 8.47534Z" fill="#151515"/>
<path d="M186.188 22.87C188.206 22.87 189.686 24.3498 189.686 26.3678C189.686 28.3857 188.206 29.8655 186.188 29.8655C184.17 29.8655 182.691 28.3857 182.691 26.3678C182.691 24.3498 184.17 22.87 186.188 22.87Z" fill="#151515"/>
</g>
<defs>
<clipPath id="clip0_692_833">
<rect width="189.686" height="30" fill="white"/>
</clipPath>
</defs>
</svg>
