<svg width="108" height="26" viewBox="0 0 108 26" fill="none" xmlns="http://www.w3.org/2000/svg">
<g clip-path="url(#clip0_787_884)">
<path d="M66.3023 16.7736L69.912 6.27828L73.4367 16.7736H66.3023ZM27.392 12.1699H25.4412V2.13734H27.061C29.9296 2.13734 31.8558 3.98551 31.8558 7.40191C31.8558 9.28214 30.3868 12.1699 27.392 12.1699ZM5.51565 16.7736L9.12445 6.27828L12.6496 16.7736H5.51565ZM107.566 2.13734V1.27631H95.4288V2.13734H97.3134V18.708L86.0012 1.27674H80.7375V2.13778H82.6156V24.3556H79.3569L71.1552 0.225476L62.6875 24.3556H59.548V2.13734H61.4347V1.27631H56.457L50.1823 19.4815L43.6013 1.27631H38.7185V2.13734H40.6005V24.3552H36.8643C35.8069 24.3552 34.8809 23.4097 34.8809 21.8059V18.302C34.8809 15.6166 34.0121 13.3685 31.3271 12.6058C33.6628 11.8973 35.2939 9.66044 35.2939 7.26931C35.2939 3.86504 32.7576 1.27631 27.8544 1.27631H20.4873V2.13734H22.3667V24.3556H18.5698L10.3681 0.224609L1.89991 24.3552H0.230713V25.2162H4.96185V24.3552H2.87101L5.23268 17.6182H12.923L15.1751 24.3552H12.2852V25.2162H28.351V24.3556H25.4412V13.0313H27.392C30.2403 13.0313 31.6734 14.1992 31.6734 16.9703V19.0252C31.6734 23.9058 34.8839 25.2162 36.6337 25.2162H43.5112V24.3552H41.4606V4.67841L49.1805 25.4723L56.473 4.06048V24.3552H54.5902V25.2162H65.7485V24.3552H63.6581L66.0198 17.6182H73.7102L75.9622 24.3552H73.0723V25.2162H85.366V24.3552H83.4749V3.36541L98.1731 26.0001V2.13734H102.606V24.3552H100.722V25.2162H107.566V24.3552H105.681V2.13734H107.566H107.566Z" fill="#423a34"/>
</g>
<defs>
<clipPath id="clip0_787_884">
<rect width="108" height="26" fill="white"/>
</clipPath>
</defs>
</svg>
