<?xml version="1.0" encoding="UTF-8"?>
<svg version="1.1" xmlns="http://www.w3.org/2000/svg" width="200" height="200">
<path d="M0 0 C0.43828125 0.94617188 0.8765625 1.89234375 1.328125 2.8671875 C5.17388809 10.9578706 9.4502114 18.55189784 14.4375 26 C15.23559082 27.19278564 15.23559082 27.19278564 16.04980469 28.40966797 C17.96631567 31.24744954 17.96631567 31.24744954 20 34 C20.33 34 20.66 34 21 34 C21.10854617 31.60293877 21.18753157 29.21084162 21.25 26.8125 C21.28351563 26.13896484 21.31703125 25.46542969 21.3515625 24.77148438 C21.44987262 19.73309074 20.24879547 17.70285941 17 14 C17 12.68 17 11.36 17 10 C18.175625 10.2475 18.175625 10.2475 19.375 10.5 C25.9682488 11.40941363 32.46960284 11.37482045 39 10 C38.75 12.75 38.75 12.75 38 16 C37.3296875 16.556875 36.659375 17.11375 35.96875 17.6875 C33.15170363 20.99641162 33.56050231 24.12478102 33.75 28.25 C33.76804687 28.99507812 33.78609375 29.74015625 33.8046875 30.5078125 C33.85164351 32.33909701 33.92338348 34.16971649 34 36 C34.66 36 35.32 36 36 36 C36.23460938 35.31550781 36.46921875 34.63101563 36.7109375 33.92578125 C38.27687449 30.37157881 40.40491336 27.35064338 42.625 24.1875 C47.9047117 16.49992271 52.0362299 8.42577945 56 0 C61.75 -0.125 61.75 -0.125 64 1 C64.65868497 2.39215513 65.25406084 3.81469254 65.8125 5.25 C68.11551531 10.51522703 70.29773 13.83970328 75.765625 16.1875 C78.49309312 17.19456515 81.2259864 18.13038803 84 19 C79.33216431 24.68039697 74.30545157 29.47077257 68.68359375 34.19335938 C64.93707461 37.49024135 64.93707461 37.49024135 63.3828125 42.140625 C64.08481985 45.39296284 64.97322352 46.79114492 67.25 49.1875 C67.85328125 49.84105469 68.4565625 50.49460938 69.078125 51.16796875 C71.93153647 53.88798903 73.85294875 55.69848939 77.734375 56.71875 C83.07641477 55.54299005 85.76062505 51.51981107 89.25 47.5 C90.66739055 45.90226047 92.08904574 44.30829056 93.515625 42.71875 C94.44810059 41.65043945 94.44810059 41.65043945 95.39941406 40.56054688 C97 39 97 39 99 39 C99.86046935 58.48006999 99.86046935 58.48006999 93.4453125 65.765625 C82.85697553 75.1269873 65.62155428 73.4468984 52.4375 73.3984375 C50.47322482 73.40046425 48.50895037 73.40338065 46.54467773 73.40713501 C42.44995888 73.41153012 38.35543784 73.40521878 34.26074219 73.39111328 C29.04970039 73.37402323 23.83912238 73.38387962 18.62809753 73.40183067 C14.57853796 73.41274506 10.52908576 73.40918732 6.47952271 73.4014473 C4.55966129 73.39946638 2.63978966 73.40182913 0.71994019 73.40888596 C-27.57044405 73.49008929 -27.57044405 73.49008929 -37.3515625 65.98828125 C-42.26766788 60.05866599 -43.67898171 54.33512144 -43.5 46.75 C-43.48646484 45.91662109 -43.47292969 45.08324219 -43.45898438 44.22460938 C-42.99643306 30.33731284 -37.27933074 19.79611483 -27.3125 10.1875 C-19.62261275 3.84296082 -9.94864131 -0.22610548 0 0 Z " fill="#000000" transform="translate(53,110)"/>
<path d="M0 0 C0.71994141 -0.00322266 1.43988281 -0.00644531 2.18164062 -0.00976562 C5.95349709 0.02875844 7.73089072 0.17476048 10.9375 2.3125 C10.40339137 9.66501669 9.80609084 16.99152003 8.9375 24.3125 C9.9275 24.6425 10.9175 24.9725 11.9375 25.3125 C12.07027344 24.35988281 12.20304687 23.40726563 12.33984375 22.42578125 C12.51644531 21.17152344 12.69304687 19.91726562 12.875 18.625 C13.04902344 17.38363281 13.22304687 16.14226563 13.40234375 14.86328125 C13.83572897 11.98775452 14.33399282 9.15605187 14.9375 6.3125 C25.02015778 10.87370233 30.08250106 17.37893114 34.25 27.5 C35.04543588 30.75405588 35.53854737 33.98789473 35.9375 37.3125 C37.5875 37.9725 39.2375 38.6325 40.9375 39.3125 C42.2731769 45.74803417 42.2731769 45.74803417 40.92285156 48.01870728 C37.92993987 49.96909603 34.94104531 49.73008899 31.484375 49.70068359 C30.34977844 49.70856903 30.34977844 49.70856903 29.19226074 49.71661377 C26.69046414 49.72982414 24.18930314 49.72107232 21.6875 49.7109375 C19.95019407 49.71295794 18.21288896 49.71586914 16.47558594 49.71963501 C12.83390226 49.72405976 9.19243928 49.71762254 5.55078125 49.70361328 C0.87976516 49.68652122 -3.79073384 49.69636161 -8.46173096 49.71433067 C-12.04935613 49.72516449 -15.63685845 49.72172404 -19.2244873 49.7139473 C-20.94690003 49.71194417 -22.66932387 49.7144085 -24.39172363 49.72138596 C-26.79790855 49.72899395 -29.2032528 49.71740612 -31.609375 49.70068359 C-32.68016296 49.70979263 -32.68016296 49.70979263 -33.77258301 49.71908569 C-36.6429035 49.68207659 -38.60294938 49.62720888 -41.00878906 47.97964478 C-42.64102906 45.39717145 -42.37864177 43.28423265 -42.0625 40.3125 C-41.4025 39.6525 -40.7425 38.9925 -40.0625 38.3125 C-38.7425 38.3125 -37.4225 38.3125 -36.0625 38.3125 C-35.96453125 37.5390625 -35.8665625 36.765625 -35.765625 35.96875 C-34.2072463 25.11383629 -30.94910872 18.02188156 -23.0625 10.3125 C-19.97370329 8.06610239 -18.86922941 7.3125 -15.0625 7.3125 C-13.5775 16.2225 -13.5775 16.2225 -12.0625 25.3125 C-11.0725 24.9825 -10.0825 24.6525 -9.0625 24.3125 C-9.26166016 22.91837891 -9.26166016 22.91837891 -9.46484375 21.49609375 C-10.33072917 15.43489583 -11.19661458 9.37369792 -12.0625 3.3125 C-8.44837297 -0.26388158 -4.8026213 -0.10806979 0 0 Z " fill="#000000" transform="translate(81.0625,16.6875)"/>
<path d="M0 0 C5.24735697 0.89106062 9.32941917 3.11411529 12.7109375 7.2890625 C15.04081404 11.30438164 15.37410196 14.23463383 14.94140625 18.8215332 C14.8916529 23.28360155 15.43964863 25.47226955 18.43359375 28.80541992 C19.84604671 30.16256964 21.28672456 31.49077686 22.75 32.79296875 C23.50466553 33.51309647 24.25933105 34.23322418 25.03686523 34.97517395 C27.43728925 37.26161629 29.87039521 39.50819022 32.3125 41.75 C34.75167907 44.00501286 37.18127189 46.26746478 39.58813477 48.55696106 C41.082149 49.97691856 42.59515578 51.37722711 44.12866211 52.75444031 C49.05440181 57.41888815 49.05440181 57.41888815 49.80859375 60.76065063 C49.86084219 63.66350053 49.6597129 65.96452223 48.1875 68.5 C45.48573836 70.03099826 43.41814495 70.4382742 40.3125 70.5625 C35.38285138 68.27691636 32.13032261 64.43852998 28.5 60.5234375 C27.16433671 59.12349438 25.827044 57.7251044 24.48828125 56.328125 C22.39723631 54.13857993 20.31697117 51.94234297 18.26318359 49.71777344 C9.37938879 39.42232495 9.37938879 39.42232495 -2.96484375 35.2109375 C-3.98570068 35.27716309 -5.00655762 35.34338867 -6.05834961 35.41162109 C-8.6875 35.5625 -8.6875 35.5625 -12.25 33.8125 C-16.41291492 29.96980931 -19.56559808 26.83800254 -19.875 21.0625 C-19.6875 17.5625 -19.6875 17.5625 -17.6875 15.5625 C-14.32297421 15.88003557 -12.92814986 17.09697771 -10.8125 19.625 C-8.50372044 22.0565248 -7.95898798 22.51459036 -4.5 23.125 C-1.7620049 22.71799895 -1.7620049 22.71799895 0.1875 21.5625 C2.04760705 18.25564303 2.26978129 15.1555832 1.3125 11.5625 C-0.73020981 8.85921239 -3.06822424 6.70068429 -5.6875 4.5625 C-4.06621035 1.6802073 -3.29779114 0.69023536 0 0 Z M40.3125 59.5625 C39.9825 61.2125 39.6525 62.8625 39.3125 64.5625 C40.6325 64.8925 41.9525 65.2225 43.3125 65.5625 C43.6425 63.9125 43.9725 62.2625 44.3125 60.5625 C42.9925 60.2325 41.6725 59.9025 40.3125 59.5625 Z " fill="#000000" transform="translate(139.6875,90.4375)"/>
<path d="M0 0 C2.375 1.75 2.375 1.75 4 4 C3.75 6.25 3.75 6.25 3 8 C4.33611328 8.11021484 4.33611328 8.11021484 5.69921875 8.22265625 C9.65356027 9.15391538 11.05796632 10.50464898 13.8125 13.4375 C14.96685547 14.64212891 14.96685547 14.64212891 16.14453125 15.87109375 C19.88224946 20.1596336 19.32554407 24.28034507 19.2890625 29.7890625 C18.7880182 35.35471678 16.09315302 38.31616228 12 42 C10.0625 41.25 10.0625 41.25 8 40 C7.3125 38.1875 7.3125 38.1875 7 36 C6.814375 35.0925 6.62875 34.185 6.4375 33.25 C6.293125 32.5075 6.14875 31.765 6 31 C2.942048 32.73559438 0.36620011 34.38472619 -2 37 C-6.29238623 35.34908222 -8.8793915 32.26245434 -12 29 C-10.88408263 26.39619281 -9.93328633 24.93900464 -7.8125 23 C-5.7621702 21.1874176 -5.7621702 21.1874176 -6 18.875 C-7.28322774 16.46894799 -8.52895836 16.0483207 -11 15 C-13 13 -13 13 -13.35546875 10.64453125 C-12.89723471 7.23547139 -11.74670695 6.07671237 -9.3125 3.6875 C-8.28576172 2.64142578 -8.28576172 2.64142578 -7.23828125 1.57421875 C-4.55245734 -0.31476386 -3.21777913 -0.45968273 0 0 Z " fill="#000000" transform="translate(171,87)"/>
<path d="M0 0 C1.65 0 3.3 0 5 0 C5.23074219 1.03898437 5.46148437 2.07796875 5.69921875 3.1484375 C8.42418748 14.98173498 11.67095132 27.31257335 22.25390625 34.5390625 C28.10061096 37.8146811 33.33986891 39.18814122 40 38 C42.91736354 36.99348403 45.40901615 35.66521659 48 34 C48.86625 33.46375 49.7325 32.9275 50.625 32.375 C59.2106967 23.7893033 62.71631544 11.60872983 65 0 C66.65 0 68.3 0 70 0 C70.45087738 13.66505287 64.97923022 26.99826245 55.6875 36.9375 C49.18676742 43.02445061 41.96344093 46.12804916 33 46 C26.80067801 45.34249615 21.93820709 42.6911851 17 39 C16.41347656 38.56429687 15.82695313 38.12859375 15.22265625 37.6796875 C6.95218829 30.51569938 1.3585153 17.69830799 0 7 C-0.11456521 4.63819421 -0.10070436 2.36655253 0 0 Z " fill="#000000" transform="translate(46,70)"/>
<path d="M0 0 C3.37703332 0.89727938 4.87443345 2.6042769 7.23828125 5.14453125 C8.02847656 5.97984375 8.81867188 6.81515625 9.6328125 7.67578125 C10.22449219 8.32546875 10.81617188 8.97515625 11.42578125 9.64453125 C10.14981813 15.00042582 7.66412025 17.72168081 3.55078125 21.14453125 C-0.61040807 24.65774949 -3.68312228 27.94071067 -6.57421875 32.64453125 C-8.01171875 34.58203125 -8.01171875 34.58203125 -9.57421875 35.64453125 C-14.35852483 35.35532449 -16.62435647 33.19014254 -19.94921875 29.89453125 C-20.84382813 29.0334375 -21.7384375 28.17234375 -22.66015625 27.28515625 C-24.57421875 24.64453125 -24.57421875 24.64453125 -24.47265625 21.94921875 C-23.02881361 18.2454485 -20.76651686 16.29207247 -17.30859375 14.4140625 C-13.26677489 11.7984283 -10.25934713 8.31110017 -7.03515625 4.76367188 C-4.80687094 2.4239723 -3.17821232 0.79575877 0 0 Z " fill="#000000" transform="translate(142.57421875,129.35546875)"/>
</svg>
