<svg width="44" height="44" viewBox="0 0 44 44" fill="none" xmlns="http://www.w3.org/2000/svg">
<mask id="mask0_780_1405" style="mask-type:alpha" maskUnits="userSpaceOnUse" x="0" y="0" width="44" height="44">
<circle cx="22" cy="22" r="22" fill="white"/>
<circle cx="22" cy="22" r="21.5" stroke="black" stroke-opacity="0.1"/>
</mask>
<g mask="url(#mask0_780_1405)">
<path d="M30.9636 11.5344C30.9427 11.3883 30.8175 11.3048 30.7131 11.3048C30.6087 11.3048 28.542 11.263 28.542 11.263C28.542 11.263 26.8092 9.59294 26.6422 9.40505C26.4752 9.23804 26.1412 9.27979 26.0159 9.32155C26.0159 9.32155 25.6819 9.42593 25.1391 9.59294C25.0556 9.30067 24.9095 8.94577 24.7216 8.57C24.1162 7.40093 23.1976 6.77464 22.1121 6.77464C22.0286 6.77464 21.9659 6.77464 21.8824 6.79552C21.8407 6.75377 21.8198 6.71201 21.778 6.69114C21.2979 6.19011 20.6925 5.93959 19.9618 5.95838C18.5631 6.00013 17.1644 7.02307 16.0162 8.81843C15.2229 10.0919 14.6175 11.6785 14.4296 12.9102C12.8221 13.4112 11.6948 13.7661 11.653 13.7661C10.8389 14.0166 10.818 14.0375 10.7136 14.8099C10.6719 15.3945 8.54248 31.8658 8.54248 31.8658L26.4126 34.9555L34.1577 33.0349C34.1368 33.0349 30.9845 11.6785 30.9636 11.5323V11.5344ZM24.2414 9.88521C23.8239 10.0105 23.3646 10.1566 22.8636 10.3236C22.8636 9.61381 22.7592 8.61175 22.4461 7.7767C23.5108 7.94371 24.0327 9.15454 24.2414 9.88521ZM21.9242 10.595C20.9847 10.8873 19.9618 11.2004 18.9389 11.5136C19.2311 10.4071 19.7739 9.32155 20.442 8.59088C20.6925 8.31949 21.0474 8.02722 21.444 7.86021C21.8615 8.67438 21.945 9.82258 21.9242 10.595ZM20.0036 6.8999C20.3376 6.8999 20.609 6.96253 20.8386 7.12954C20.4628 7.31743 20.0871 7.60969 19.753 7.98547C18.8554 8.94577 18.1664 10.428 17.8951 11.8685C17.0391 12.1398 16.2041 12.3904 15.4525 12.62C15.9536 10.3445 17.8533 6.96253 20.0036 6.8999Z" fill="#95BF47"/>
<path d="M30.7131 11.3047C30.6087 11.3047 28.542 11.2629 28.542 11.2629C28.542 11.2629 26.8092 9.5928 26.6422 9.40492C26.5796 9.34229 26.4961 9.30054 26.4126 9.30054V34.9575L34.1577 33.0369C34.1577 33.0369 31.0054 11.6804 30.9845 11.5343C30.9427 11.3882 30.8175 11.3047 30.7131 11.3047Z" fill="#5E8E3E"/>
<path d="M22.112 15.2919L21.2144 18.653C21.2144 18.653 20.2123 18.1937 19.0224 18.2773C17.2688 18.3816 17.2687 19.4881 17.2687 19.7595C17.3731 21.2626 21.3188 21.5966 21.5484 25.1247C21.7154 27.9012 20.087 29.801 17.7072 29.9471C14.868 30.0932 13.3022 28.4231 13.3022 28.4231L13.9077 25.8553C13.9077 25.8553 15.4943 27.0453 16.7468 26.9618C17.561 26.92 17.8742 26.2311 17.8324 25.7718C17.7071 23.8095 14.4922 23.9347 14.2834 20.6989C14.1164 17.985 15.8909 15.2502 19.8156 14.9997C21.3396 14.8953 22.112 15.2919 22.112 15.2919Z" fill="white"/>
<circle cx="22" cy="22" r="21.5" stroke="black" stroke-opacity="0.1"/>
</g>
</svg>
